<svg xmlns="http://www.w3.org/2000/svg" viewBox="0 0 900 166.5"><defs><style>.a{fill:#6f7577;}.b,.l{fill:#9ba2a5;}.c{fill:#fff;}.d,.e,.h,.m{fill:none;}.d{stroke:#f9f93a;}.d,.e,.h,.j,.l,.m{stroke-miterlimit:10;}.d,.e,.h{stroke-width:3px;}.e,.l{stroke:#fff;}.f,.j{fill:#c0c7c9;}.g{fill:#606a6d;}.h{stroke:#4d4d4d;}.i{fill:#5b6466;}.j{stroke:#000;}.k{fill:#7e8b8c;}.m{stroke:#efef30;}.n{fill:#bac5c6;}</style></defs><title>aircraft-carrier</title><polygon class="a" points="54.06 155.5 0.5 142.61 0.5 26.39 60.07 11.5 625.87 0.5 721.85 56.49 899.5 67.47 899.5 135.52 678.83 146.51 650.35 166 54.06 155.5"/><path d="M625.74,1,721.5,56.86l.2.12.24,0L899,67.94v67.11L679,146l-.28,0-.23.15L650.2,165.49,54.13,155,1,142.21V26.78L60.13,12,625.74,1M626,0,60,11,0,26V143l54,13,596.5,10.5L679,147l221-11V67L722,56,626,0Z"/><rect class="b" x="231" y="114" width="38" height="38"/><path class="c" d="M268.5,114.5v37h-37v-37h37m1-1h-39v39h39v-39Z"/><rect class="b" x="402" y="99" width="51" height="51"/><path class="c" d="M452.5,99.5v50h-50v-50h50m1-1h-52v52h52v-52Z"/><line class="d" x1="624.05" y1="6.98" x2="14" y2="78"/><line class="d" x1="699" y1="51" x2="12" y2="132"/><line class="d" x1="85" y1="98" x2="13" y2="106"/><line class="d" x1="203" y1="85" x2="131" y2="93"/><line class="d" x1="324" y1="71" x2="252" y2="79"/><line class="d" x1="443" y1="57" x2="371" y2="65"/><line class="d" x1="559" y1="44" x2="487" y2="52"/><line class="d" x1="668" y1="31" x2="596" y2="39"/><line class="e" x1="892.24" y1="75.46" x2="529" y2="91"/><line class="e" x1="574" y1="116" x2="534" y2="118"/><line class="e" x1="659" y1="112" x2="619" y2="114"/><line class="e" x1="736" y1="108" x2="696" y2="110"/><line class="e" x1="820" y1="104" x2="780" y2="106"/><line class="e" x1="893" y1="100" x2="853" y2="102"/><line class="e" x1="892.71" y1="126.41" x2="529" y2="142"/><circle class="f" cx="371.5" cy="135.5" r="10.5"/><path d="M371.5,125.5a10,10,0,1,1-10,10,10,10,0,0,1,10-10m0-1a11,11,0,1,0,11,11,11,11,0,0,0-11-11Z"/><circle class="g" cx="371.5" cy="135.5" r="6"/><line class="h" x1="371" y1="114" x2="372" y2="157"/><path class="f" d="M240.62,39a10.51,10.51,0,0,1,0-21,10.31,10.31,0,0,1,4.49,1,10.5,10.5,0,0,1-4.5,20Z"/><path d="M240.63,18.51h0a10,10,0,0,1,9,14.29,10,10,0,0,1-13.32,4.75,10,10,0,0,1-4.75-13.31,10.06,10.06,0,0,1,9-5.73m0-1a11,11,0,1,0,4.71,1.07,11,11,0,0,0-4.71-1.07Z"/><circle class="g" cx="240.63" cy="28.52" r="6"/><line class="h" x1="220.98" y1="19.76" x2="260.27" y2="37.27"/><rect class="i" x="407" y="106" width="21" height="38"/><circle class="j" cx="487" cy="143" r="10"/><circle class="g" cx="487" cy="143" r="6"/><rect class="k" x="485.09" y="117.58" width="3" height="49.8" transform="translate(200.19 560.87) rotate(-71.93)"/><rect class="l" x="63" y="18" width="45" height="38"/><rect class="l" x="152" y="18" width="48" height="24"/><circle class="i" cx="319" cy="129" r="24"/><line class="m" x1="310.5" y1="115.5" x2="310.5" y2="144.5"/><line class="m" x1="327" y1="115.5" x2="327" y2="144.5"/><line class="m" x1="310" y1="130" x2="327" y2="130"/><circle class="n" cx="310.5" cy="19.5" r="4.5"/><circle class="n" cx="187" cy="138" r="4.5"/><circle class="n" cx="108" cy="140" r="4.5"/><circle class="n" cx="497" cy="99" r="4.5"/><circle class="n" cx="711" cy="66" r="4.5"/><circle class="n" cx="417" cy="16" r="4.5"/></svg>