<svg xmlns="http://www.w3.org/2000/svg" viewBox="0 0 536.49 153.91"><defs><style>.cls-1{fill:#383838;}.cls-2{fill:#757474;}.cls-3{fill:#444343;}.cls-4{fill:#132613;}.cls-5{fill:#6d6d6d;}.cls-11,.cls-6{fill:#b2b2b2;}.cls-7{fill:#666;}.cls-8{fill:#4f4f4f;}.cls-9{fill:#dbdbdb;}.cls-10{fill:none;stroke:gray;}.cls-10,.cls-11,.cls-12,.cls-13,.cls-14,.cls-15{stroke-miterlimit:10;}.cls-11,.cls-12,.cls-13,.cls-14,.cls-15{stroke:#000;}.cls-12{fill:#3f3f3f;}.cls-13{fill:#848484;}.cls-14{fill:#686868;fill-rule:evenodd;}.cls-15{fill:#777;}.cls-16{fill:#636363;}.cls-17{fill:#fff;}.cls-18{fill:#919191;}.cls-19{fill:#a5a5a5;}.cls-20{fill:#5e5e5e;}.cls-21{fill:#424242;}</style></defs><title>Asset 1</title><g id="Layer_2" data-name="Layer 2"><g id="Layer_1-2" data-name="Layer 1"><path class="cls-1" d="M292,153.41c-27.29,0-54.91-1.14-82.09-3.4A996.56,996.56,0,0,1,2.45,110.21L.51,46.06A905.31,905.31,0,0,1,212.87,3.28C236.27,1.43,260,.5,283.52.5A907.8,907.8,0,0,1,385,6.22v.16h.46c78.58,5.71,131,51.42,150.28,71.21-23.87,23.88-74.86,64.5-150.29,71.29H385V149c-30.79,2.9-62,4.36-92.93,4.36Z"/><path d="M283.52,1A907.63,907.63,0,0,1,384.45,6.66v.19l.93.06c35.75,2.6,70,13.67,101.73,32.88A245.23,245.23,0,0,1,535,77.63a254.85,254.85,0,0,1-48.92,37.81,237.34,237.34,0,0,1-100.71,33l-.92.08v.1c-30.62,2.86-61.71,4.31-92.43,4.31-27.27,0-54.87-1.14-82-3.4A996.13,996.13,0,0,1,3,109.85L2,78.11,1,46.41A905.58,905.58,0,0,1,212.91,3.77C236.3,1.93,260.06,1,283.52,1m0-1c-22.42,0-46,.84-70.69,2.78A905.52,905.52,0,0,0,0,45.7l2,64.88a995,995,0,0,0,207.93,39.93c28.78,2.39,56.22,3.4,82.13,3.4,33.92,0,65.21-1.74,93.43-4.4v-.1c83.28-7.49,136.12-56.88,151-71.77C523.23,63.93,470,12.06,385.49,5.92V5.77A904.72,904.72,0,0,0,283.52,0Z"/><path class="cls-2" d="M529.14,76.27c-12.74-12.75-63.9-61-145-66.69V9.44c-24.81-2-51.14-3.44-78.8-4-18.11-.36-51.6-1-87.07,1.26A744.91,744.91,0,0,0,66.69,32.72c-22,6.15-40.08,12.31-53,17l1,54.9c14.15,5.11,33.91,11.7,57.87,18,12.48,3.26,61.75,15.77,142.87,21.47a1125.2,1125.2,0,0,0,168.67-.93V143C464.12,136.05,514.89,90.12,529.14,76.27Z"/><polygon class="cls-3" points="203.04 128.54 203.04 110.62 112.31 103.13 112.31 55.13 203.04 44.65 203.04 25.74 262.85 25.74 262.85 44.7 291.29 44.7 291.29 110.58 262.85 110.58 262.85 128.54 203.04 128.54"/><path class="cls-4" d="M262.35,26.24v19h28.44v64.88H262.35v18H203.54v-18l-.92-.08-54.44-4.49-35.37-2.92V55.57l35.41-4.09,54.43-6.29.89-.1V26.24h58.81m1-1H202.54v19L111.81,54.68v48.91l90.73,7.49v18h60.81v-18h28.44V44.2H263.35v-19Z"/><rect class="cls-5" x="211.49" y="44.33" width="40.94" height="66.63" rx="10.19"/><path class="cls-6" d="M242.24,44.45a10.08,10.08,0,0,1,10.07,10.06v46.26a10.08,10.08,0,0,1-10.07,10.06H221.68a10.08,10.08,0,0,1-10.07-10.06V54.51a10.08,10.08,0,0,1,10.07-10.06h20.56m0-.25H221.68a10.32,10.32,0,0,0-10.32,10.31v46.26a10.32,10.32,0,0,0,10.32,10.31h20.56a10.32,10.32,0,0,0,10.32-10.31V54.51A10.32,10.32,0,0,0,242.24,44.2Z"/><path class="cls-5" d="M272.48,100a10,10,0,0,1-10-10V66.29a10,10,0,0,1,20,0V90A10,10,0,0,1,272.48,100Z"/><path class="cls-6" d="M272.48,56.43a9.88,9.88,0,0,1,9.86,9.86V90a9.87,9.87,0,0,1-19.73.63q0-.31,0-.63V66.29a9.89,9.89,0,0,1,9.87-9.86m0-.25h0a10.12,10.12,0,0,0-10.12,10.11V90a10.12,10.12,0,0,0,10.12,10.12h0A10.11,10.11,0,0,0,282.59,90h0V66.29a10.11,10.11,0,0,0-10.11-10.11Z"/><ellipse class="cls-7" cx="348.67" cy="77.14" rx="23.54" ry="23.96"/><path class="cls-8" d="M348.18,95.61a18,18,0,0,1,0-35.94,17.6,17.6,0,0,1,16.65,12H344.25v13h20.17A17.75,17.75,0,0,1,348.18,95.61Z"/><path class="cls-9" d="M348.18,60.17a17.08,17.08,0,0,1,15.93,11H343.75v14h19.9a17.22,17.22,0,1,1-15.47-25m0-1a18.47,18.47,0,1,0,17,25h-20.4v-12h20.76a18.17,18.17,0,0,0-17.33-13Z"/><line class="cls-10" x1="442.34" y1="75.64" x2="445.28" y2="72.65"/><rect class="cls-11" x="442.34" y="72.65" width="24.52" height="10.98"/><line class="cls-10" x1="442.34" y1="79.64" x2="449.21" y2="72.65"/><line class="cls-10" x1="442.34" y1="83.63" x2="453.13" y2="72.65"/><line class="cls-10" x1="446.26" y1="83.63" x2="457.05" y2="72.65"/><line class="cls-10" x1="450.19" y1="83.63" x2="460.98" y2="72.65"/><line class="cls-10" x1="454.11" y1="83.63" x2="464.9" y2="72.65"/><line class="cls-10" x1="458.03" y1="83.63" x2="466.86" y2="74.65"/><line class="cls-10" x1="461.96" y1="83.63" x2="466.86" y2="78.64"/><rect class="cls-12" x="347.2" y="74.65" width="95.14" height="6.99"/><line class="cls-10" x1="35.44" y1="65.48" x2="33.67" y2="58.31"/><line class="cls-10" x1="33.93" y1="64.59" x2="32.16" y2="57.41"/><line class="cls-10" x1="32.42" y1="63.7" x2="30.64" y2="56.52"/><line class="cls-10" x1="30.9" y1="62.8" x2="29.13" y2="55.63"/><line class="cls-10" x1="29.39" y1="61.91" x2="27.94" y2="56.04"/><line class="cls-10" x1="27.88" y1="61.02" x2="27.08" y2="57.76"/><ellipse class="cls-13" cx="66.2" cy="77.66" rx="13.24" ry="13.48"/><line class="cls-10" x1="36.69" y1="100.7" x2="37.17" y2="98.74"/><line class="cls-10" x1="35.18" y1="101.59" x2="36.31" y2="97.03"/><polygon class="cls-14" points="37.39 99.17 74.05 77.53 72.53 74.52 35.87 96.17 37.39 99.17"/><polygon class="cls-14" points="28.38 105.61 37.83 100.03 35.44 95.31 25.99 100.89 28.38 105.61"/><ellipse class="cls-15" cx="79.94" cy="76.66" rx="13.24" ry="13.48"/><ellipse class="cls-16" cx="286.88" cy="25.24" rx="2.69" ry="2.74"/><path class="cls-17" d="M286.88,22.74a2.5,2.5,0,1,1-2.44,2.56v-.06a2.48,2.48,0,0,1,2.44-2.5m0-.5a3,3,0,1,0,2.95,3.05v-.05A3,3,0,0,0,286.88,22.24Z"/><ellipse class="cls-16" cx="166.25" cy="28.23" rx="2.69" ry="2.74"/><path class="cls-17" d="M166.25,25.74a2.49,2.49,0,1,1-2.45,2.53v0a2.48,2.48,0,0,1,2.45-2.49h0m0-.5a3,3,0,1,0,2.94,3.06v-.06A3,3,0,0,0,166.25,25.24Z"/><path class="cls-16" d="M286.88,131.79a2.75,2.75,0,1,1,2.7-2.8v.06a2.72,2.72,0,0,1-2.7,2.74Z"/><path class="cls-17" d="M286.88,126.55a2.5,2.5,0,1,1-2.44,2.56v-.06a2.48,2.48,0,0,1,2.44-2.5m0-.5a3,3,0,1,0,2.95,3v0A3,3,0,0,0,286.88,126.05Z"/><ellipse class="cls-16" cx="163.3" cy="123.06" rx="2.69" ry="2.74"/><path class="cls-17" d="M163.3,120.56a2.5,2.5,0,1,1-2.44,2.56v-.06a2.48,2.48,0,0,1,2.44-2.5m0-.5a3,3,0,1,0,2.95,3v0A3,3,0,0,0,163.3,120.06Z"/><path class="cls-16" d="M450.68,116.82a2.75,2.75,0,1,1,2.69-2.81v.06a2.72,2.72,0,0,1-2.69,2.75Z"/><path class="cls-17" d="M450.68,111.58a2.5,2.5,0,1,1-2.44,2.56v-.07a2.47,2.47,0,0,1,2.44-2.49m0-.5a3,3,0,1,0,2.94,3.06v-.06A3,3,0,0,0,450.68,111.08Z"/><ellipse class="cls-16" cx="450.68" cy="44.2" rx="2.69" ry="2.74"/><path class="cls-17" d="M450.68,41.71a2.5,2.5,0,1,1-2.44,2.56V44.2a2.47,2.47,0,0,1,2.44-2.49m0-.5a3,3,0,1,0,2.94,3.06v-.06A3,3,0,0,0,450.68,41.21Z"/><ellipse class="cls-16" cx="372.21" cy="28.23" rx="2.69" ry="2.74"/><path class="cls-17" d="M372.21,25.74a2.49,2.49,0,1,1-2.44,2.54v-.05a2.47,2.47,0,0,1,2.44-2.49m0-.5a3,3,0,1,0,3,3A3,3,0,0,0,372.21,25.24Z"/><ellipse class="cls-16" cx="372.21" cy="123.06" rx="2.69" ry="2.74"/><path class="cls-17" d="M372.21,120.56a2.5,2.5,0,1,1-2.44,2.56v-.06a2.48,2.48,0,0,1,2.44-2.5m0-.5a3,3,0,1,0,3,3h0A3,3,0,0,0,372.21,120.06Z"/><rect class="cls-18" x="327.35" y="117.32" width="7.35" height="18.47"/><path class="cls-17" d="M334.44,117.57v18H327.6v-18h6.84m.5-.5H327.1v19h7.84Z"/><rect class="cls-18" x="405.81" y="36.47" width="19.12" height="7.49"/><path class="cls-17" d="M424.68,36.72v7H406.06v-7h18.62m.5-.5H405.56v8h19.62Z"/><polygon class="cls-5" points="118.31 87.51 118.31 70.76 197.51 59.32 197.51 98.96 118.31 87.51"/><path class="cls-6" d="M197.38,59.46V98.81l-39.44-5.7-39.5-5.7V70.87L152.05,66l45.33-6.55m.25-.29L118.19,70.65v17L197.63,99.1V59.17Z"/><polygon class="cls-19" points="240.42 65.16 225.95 65.16 218.72 78.04 225.95 90.92 240.42 90.92 247.65 78.04 240.42 65.16"/><rect class="cls-20" x="230.98" y="51.19" width="4.9" height="53.9"/><path class="cls-21" d="M523.75,76.64l-21.58-18v36Z"/></g></g></svg>