<svg xmlns="http://www.w3.org/2000/svg" viewBox="0 0 721.24 173"><defs><style>.a{fill:#494949;}.a,.c,.e,.f,.k,.l,.r{stroke:#000;}.a,.c,.d,.e,.f,.j,.k,.l,.o,.p,.q,.r,.u,.v{stroke-miterlimit:10;}.b{fill:#b2b2b2;}.c{fill:#848484;}.d,.e{fill:#686868;}.d,.j{stroke:gray;}.e{fill-rule:evenodd;}.f,.u{fill:#777;}.g{fill:#666;}.h{fill:#4f4f4f;}.i{fill:#dbdbdb;}.j,.l,.o{fill:none;}.k{fill:#3f3f3f;}.m{fill:#efe9da;}.n{fill:#98a2a5;}.o{stroke:#ff0;}.p{fill:#757575;stroke:#eaeaea;}.q{fill:#a0a0a0;stroke:#dbdbdb;}.r{fill:#707070;}.s{fill:#7c7c7c;}.t{fill:#cecece;}.u,.v{stroke:#fff;}.v{fill:#b1b8c9;}</style></defs><title>destroyer</title><path class="a" d="M597.78,24.8C482,2,311-15.81,119,24.45A1084.91,1084.91,0,0,0,.5,56.35v59.56a1057.41,1057.41,0,0,0,113.75,31.48c193.8,42.18,367.31,23.5,483.87,0A301,301,0,0,0,669,121.09a265,265,0,0,0,51.5-35.17C693.82,59.91,650.75,38.49,597.78,24.8Z"/><path class="b" d="M589.32,30.28C476.91,9.5,310.77-6.72,124.3,30A1108.23,1108.23,0,0,0,9.23,59v54.26A1076.09,1076.09,0,0,0,119.7,142c188.23,38.44,356.74,21.42,470,0a305.23,305.23,0,0,0,68.84-24,259.14,259.14,0,0,0,50-32C682.6,62.27,640.76,42.76,589.32,30.28Z"/><ellipse class="c" cx="606.79" cy="89.78" rx="13.6" ry="12.88"/><line class="d" x1="635.66" y1="73.72" x2="636.16" y2="71.85"/><line class="d" x1="636.54" y1="75.36" x2="637.71" y2="71"/><line class="d" x1="637.43" y1="77" x2="639.27" y2="70.15"/><line class="d" x1="638.98" y1="76.15" x2="640.82" y2="69.3"/><line class="d" x1="640.54" y1="75.31" x2="642.38" y2="68.45"/><line class="d" x1="642.09" y1="74.46" x2="643.93" y2="67.61"/><line class="d" x1="643.65" y1="73.61" x2="645.15" y2="68"/><line class="d" x1="645.2" y1="72.76" x2="646.04" y2="69.65"/><polygon class="e" points="636.99 76.18 599.28 96.77 597.73 93.89 635.44 73.31 636.99 76.18"/><polygon class="e" points="647.15 71.7 637.43 77 634.99 72.49 644.71 67.18 647.15 71.7"/><line class="d" x1="630.66" y1="65.72" x2="631.16" y2="63.85"/><line class="d" x1="631.54" y1="67.36" x2="632.71" y2="63"/><line class="d" x1="632.43" y1="69" x2="634.27" y2="62.15"/><line class="d" x1="633.98" y1="68.15" x2="635.82" y2="61.3"/><line class="d" x1="635.54" y1="67.31" x2="637.38" y2="60.45"/><line class="d" x1="637.09" y1="66.46" x2="638.93" y2="59.61"/><line class="d" x1="638.65" y1="65.61" x2="640.15" y2="60"/><line class="d" x1="640.2" y1="64.76" x2="641.04" y2="61.65"/><polygon class="e" points="631.99 68.18 594.28 88.77 592.73 85.89 630.44 65.31 631.99 68.18"/><polygon class="e" points="642.15 63.7 632.43 69 629.99 64.49 639.71 59.18 642.15 63.7"/><ellipse class="f" cx="592.68" cy="90.7" rx="13.6" ry="12.88"/><ellipse class="g" cx="440.17" cy="88.55" rx="24.17" ry="22.89"/><path class="h" d="M439.66,106.17c-10,0-18.13-7.69-18.13-17.15s8.14-17.14,18.13-17.14a18,18,0,0,1,17.09,11.4H435.64V95.72h20.69A18.25,18.25,0,0,1,439.66,106.17Z"/><path class="i" d="M439.66,72.38A17.55,17.55,0,0,1,456,82.78H435.14V96.22h20.4a17.82,17.82,0,0,1-15.88,9.45C429.94,105.67,422,98.2,422,89s7.91-16.64,17.63-16.64m0-1C429.37,71.38,421,79.28,421,89s8.34,17.65,18.63,17.65a18.61,18.61,0,0,0,17.43-11.45H436.14V83.78h21.32a18.55,18.55,0,0,0-17.8-12.4Z"/><line class="j" x1="536.35" y1="87.11" x2="539.37" y2="84.25"/><line class="j" x1="536.35" y1="90.93" x2="543.4" y2="84.25"/><line class="j" x1="536.35" y1="94.75" x2="547.43" y2="84.25"/><line class="j" x1="540.38" y1="94.75" x2="551.45" y2="84.25"/><line class="j" x1="544.41" y1="94.75" x2="555.48" y2="84.25"/><line class="j" x1="548.43" y1="94.75" x2="559.51" y2="84.25"/><line class="j" x1="552.46" y1="94.75" x2="561.53" y2="86.16"/><line class="j" x1="556.49" y1="94.75" x2="561.53" y2="89.98"/><rect class="k" x="438.66" y="86.16" width="97.69" height="6.68"/><rect class="l" x="536.35" y="84.25" width="25.18" height="10.49"/><path class="m" d="M83.16,117.56l-57.5-7.65V62.13l57.5-6.69Z"/><ellipse class="n" cx="54.15" cy="86.26" rx="29.01" ry="26.99"/><line class="o" x1="43.79" y1="73.73" x2="43.79" y2="100.72"/><line class="o" x1="62.44" y1="73.25" x2="62.44" y2="100.24"/><line class="o" x1="43.79" y1="87.23" x2="62.44" y2="87.23"/><path class="m" d="M91.89,117.56l57.5-7.65V62.13l-57.5-6.69Z"/><ellipse class="n" cx="120.9" cy="86.26" rx="29.01" ry="26.99"/><line class="o" x1="131.26" y1="73.73" x2="131.26" y2="100.72"/><line class="o" x1="112.61" y1="73.25" x2="112.61" y2="100.24"/><line class="o" x1="131.26" y1="87.23" x2="112.61" y2="87.23"/><path class="p" d="M347.57,45.89h-38V19.13H251.05V45.89L173,56.4a85.17,85.17,0,0,1,0,58.29l78,17.2V152h58.53V131.89h38c1.85-1.15,24.65-15.94,24.65-43C372.22,86.82,371.72,61,347.57,45.89Z"/><polygon class="q" points="301.74 56.4 257.31 56.4 235.09 90.52 257.31 124.65 301.74 124.65 323.95 90.52 301.74 56.4"/><path class="r" d="M296.23,106.09H262.34V74.56h33.89Z"/><polygon class="s" points="699.54 86.02 657.68 62.13 657.68 109.91 699.54 86.02"/><polygon class="t" points="397.97 46.64 389.42 53.51 363.92 26.03 372.47 19.16 397.97 46.64"/><polygon class="t" points="397.97 124.45 389.42 117.58 363.92 145.06 372.47 151.93 397.97 124.45"/><ellipse class="u" cx="519.05" cy="36.33" rx="6.16" ry="5.73"/><ellipse class="u" cx="446.15" cy="30.6" rx="6.16" ry="5.73"/><ellipse class="u" cx="446.15" cy="140.49" rx="6.16" ry="5.73"/><ellipse class="u" cx="203.81" cy="140.49" rx="6.16" ry="5.73"/><ellipse class="u" cx="203.81" cy="30.6" rx="6.16" ry="5.73"/><ellipse class="u" cx="592.99" cy="52.58" rx="6.16" ry="5.73"/><ellipse class="u" cx="592.99" cy="123.29" rx="6.16" ry="5.73"/><ellipse class="u" cx="519.05" cy="134.76" rx="6.16" ry="5.73"/><path class="q" d="M360.92,86.5c1.07,24.39-35.9,35.19-38,33-1.85-2,22.11-15.73,20.53-34.4C342,67.75,319.61,58,320.87,56.4,322.4,54.44,359.85,62.22,360.92,86.5Z"/><path class="q" d="M241.81,121.38l-50.32-17.2a36.14,36.14,0,0,1,0-33.45l51.34-11.46c-.79.42-19.46,10.87-19.51,31.26C223.28,110.3,240.79,120.79,241.81,121.38Z"/><rect class="v" x="273.64" y="39.2" width="10.27" height="101.29"/></svg>