<svg xmlns="http://www.w3.org/2000/svg" viewBox="0 0 400 184"><defs><style>.cls-1{fill:#686868;}.cls-2{fill:#b7b7b7;}.cls-3{fill:#666;}.cls-4{fill:#9e9e9e;}.cls-5{fill:#3f3e3e;}.cls-6{fill:#6d6d6d;}.cls-7{fill:#939393;}.cls-8{fill:#4c4c4c;}.cls-9{fill:#494949;}.cls-10{fill:#5b5959;}</style></defs><title>mini-defender-1</title><g id="Layer_2" data-name="Layer 2"><g id="Layer_1-2" data-name="Layer 1"><path class="cls-1" d="M166.39,183.5C105.64,183.5,48.28,170,.5,144.45V39.55C48.28,14,105.64.5,166.39.5c48.05,0,95.23,8.76,136.44,25.33C342.65,41.85,376,64.72,399.34,92c-23.33,27.28-56.69,50.15-96.51,66.17C261.62,174.74,214.44,183.5,166.39,183.5Z"/><path d="M166.39,1c48,0,95.11,8.75,136.25,25.3,39.59,15.92,72.78,38.63,96,65.7-23.26,27.07-56.45,49.78-96,65.7C261.5,174.25,214.38,183,166.39,183a382.09,382.09,0,0,1-89.3-10.38A321.52,321.52,0,0,1,1,144.15V39.85A321.52,321.52,0,0,1,77.09,11.38,382.09,382.09,0,0,1,166.39,1m0-1C103.62,0,45.87,14.67,0,39.25v105.5C45.87,169.33,103.62,184,166.39,184c99.69,0,186.77-37,233.61-92C353.16,37,266.08,0,166.39,0Z"/><path class="cls-2" d="M165.13,6.49C105.11,6.49,49.88,20.12,6,43v98c43.87,22.86,99.1,36.49,159.12,36.49,95.35,0,178.62-34.37,223.42-85.51C343.75,40.86,260.48,6.49,165.13,6.49Z"/><path class="cls-3" d="M110.66,138V120.72H68.48C78.82,115.65,85.62,104.41,85.62,92s-6.8-23.65-17.14-28.72h42.18V46h65.09V58l46,33.25-46,33.26V138Z"/><path d="M175.25,46.46V58.24l.41.3,45.23,32.7-45.23,32.7-.41.3v13.3H111.16V120.22H70.47C80,114.7,86.12,103.88,86.12,92S80,69.3,70.47,63.78h40.69V46.46h64.09m1-1H110.16V62.78H66.09c11.39,4.41,19,16.15,19,29.22s-7.64,24.81-19,29.22h44.07v17.32h66.09V124.75L222.6,91.24,176.25,57.73V45.46Z"/><path class="cls-4" d="M120.17,116.29c-1.9-1.33-12.52-9.44-12.52-24.29s10.79-23.09,12.56-24.32a56.7,56.7,0,0,0,23,5.34h1a57.41,57.41,0,0,0,23.54-5.14V116a43.55,43.55,0,0,0-23.54-7.15h-1A42.9,42.9,0,0,0,120.17,116.29Z"/><path class="cls-5" d="M120.27,68.25a57,57,0,0,0,22.91,5.27h1a57.82,57.82,0,0,0,23-4.87V115a44,44,0,0,0-23.05-6.73h-1a43.38,43.38,0,0,0-23,7.36c-2.43-1.77-12-9.67-12-23.68,0-14.19,9.84-22.11,12.12-23.75m48-1.14a56.68,56.68,0,0,1-24,5.42h-1a56.68,56.68,0,0,1-23-5.41c-.65.42-13,8.79-13,24.89s12.37,24.47,13,24.89a42.69,42.69,0,0,1,23-7.57h1a42.87,42.87,0,0,1,24.05,7.58V67.11Z"/><path class="cls-1" d="M139.2,103.41c-5.8,0-10.52-5.12-10.52-11.41s4.72-11.41,10.52-11.41S149.71,85.71,149.71,92,145,103.41,139.2,103.41Z"/><path d="M139.2,81.09c5.52,0,10,4.9,10,10.91s-4.49,10.91-10,10.91-10-4.9-10-10.91,4.49-10.91,10-10.91m0-1c-6.09,0-11,5.33-11,11.91s4.93,11.91,11,11.91,11-5.33,11-11.91-4.93-11.91-11-11.91Z"/><circle class="cls-6" cx="271" cy="96" r="14.5"/><path d="M271,82a14,14,0,1,1-14,14,14,14,0,0,1,14-14m0-1a15,15,0,1,0,15,15,15,15,0,0,0-15-15Z"/><rect class="cls-7" x="256.79" y="83.93" width="95.14" height="7.66" transform="translate(-12.14 75.02) rotate(-13.78)"/><path d="M349.28,73.32l1.58,6.46L259.44,102.2l-1.59-6.46,91.43-22.42m.73-1.21L256.64,95l2.07,8.41,93.36-22.89L350,72.11Z"/><rect class="cls-8" x="329.64" y="73.1" width="21.52" height="11.85" transform="translate(-9.03 83.35) rotate(-13.78)"/><path d="M349.07,71.32l2.58,10.53-19.93,4.89L329.14,76.2l19.93-4.88m.73-1.21-21.87,5.36L331,88l21.87-5.37L349.8,70.11Z"/><circle class="cls-9" cx="258" cy="96" r="14.5"/><path d="M258,82a14,14,0,1,1-14,14,14,14,0,0,1,14-14m0-1a15,15,0,1,0,15,15,15,15,0,0,0-15-15Z"/><circle class="cls-10" cx="203.5" cy="156.5" r="3.5"/><circle class="cls-10" cx="110.5" cy="20.5" r="3.5"/><circle class="cls-10" cx="110.5" cy="163.5" r="3.5"/><circle class="cls-10" cx="317.5" cy="120.5" r="3.5"/><circle class="cls-10" cx="45.5" cy="135.5" r="3.5"/><circle class="cls-10" cx="45.5" cy="59.5" r="3.5"/><circle class="cls-10" cx="317.5" cy="63.5" r="3.5"/><circle class="cls-10" cx="203.5" cy="23.5" r="3.5"/><rect class="cls-10" x="245" y="139" width="23" height="7"/><rect class="cls-10" x="236" y="33" width="7" height="23"/><polygon class="cls-1" points="384 91.85 364 72.7 364 111 384 91.85"/></g></g></svg>