<svg xmlns="http://www.w3.org/2000/svg" viewBox="0 0 930 88.5"><title>Asset 38</title><polygon points="661.03 54.24 610.12 35.79 612.06 30.94 662.97 49.39 661.03 54.24" style="fill:#7c6262"/><ellipse cx="662.8" cy="55.97" rx="13.62" ry="12.97" style="fill:#443636"/><path d="M697.3,77.83l-46.6-5.76L621.05,55.93a243.75,243.75,0,0,1,75.65,2.88Z" style="fill:#7c6262"/><rect x="701.84" y="46.99" width="10.89" height="39.21" style="fill:#7c6262"/><polygon points="735.94 18.45 731.01 35.75 740.88 35.75 735.94 18.45" style="fill:#7c6262"/><rect x="724.54" y="33.44" width="22.39" height="27.67" rx="11.2" style="fill:#443636"/><ellipse cx="770.53" cy="4.04" rx="4.24" ry="4.04" style="fill:#443636"/><rect x="769.32" y="4.04" width="2.42" height="25.37" style="fill:#7c6262"/><rect x="752.98" y="25.94" width="36.31" height="34.59" rx="9.79" style="fill:#443636"/><path d="M832.87,85H718.18V43.53a259.82,259.82,0,0,1,71.11-2c34.29,3.83,41,11.78,43.58,16.14C838.51,67.28,835.25,78.85,832.87,85Z" style="fill:#7c6262"/><path d="M766.9,78.41H733V49.58H766.9c15.71-.49,26.2,8.57,26,15S782.12,79.21,766.9,78.41Z" style="fill:#a58686"/><polygon points="622.26 41.41 608.34 36.43 611.13 29.32 625.06 34.3 622.26 41.41" style="fill:#443636"/><polygon points="877.37 60.71 906.29 51.19 905.19 48.69 876.27 58.21 877.37 60.71" style="fill:#7c6262"/><ellipse cx="876.36" cy="61.61" rx="7.73" ry="6.7" style="fill:#443636"/><polygon points="838.61 58.92 843.79 53.25 849.44 58.5 849.91 69.41 844.73 75.08 839.08 69.83 838.61 58.92" style="fill:#7c6262"/><path d="M856.77,72.89l45.09,3.21-1.78-14.52a153.32,153.32,0,0,0-23.61-.69,151.31,151.31,0,0,0-19.36,2.18Z" style="fill:#7c6262"/><polygon points="899.39 54.09 907.3 51.52 905.72 47.85 897.8 50.42 899.39 54.09" style="fill:#443636"/><path d="M914.26,77.55a45.84,45.84,0,0,0-9.07,11H577.27A68.3,68.3,0,0,0,562.72,62C549,46.52,532,41.23,525.13,39.49c-3.26-.82,57.3,8,95.62,13.84,62.35,9.48,111.16,10.16,167.63,11,60.13.84,141.3-1.35,141.62,3.45C930.1,69.2,922.71,70.1,914.26,77.55Z" style="fill:#443636"/><polygon points="810.32 52.47 805.18 52.47 802.61 56.79 805.18 61.11 810.32 61.11 812.89 56.79 810.32 52.47" style="fill:#a58686"/><polygon points="583.51 55.35 578.65 55.35 576.22 59.38 578.65 63.42 583.51 63.42 585.95 59.38 583.51 55.35" style="fill:#a58686"/><text transform="translate(444.52 70.94)" style="font-size:48px;font-family:Centaur;letter-spacing:-0.11000569661458333em">Vs</text><polygon points="268.97 54.24 319.88 35.79 317.94 30.94 267.03 49.39 268.97 54.24" style="fill:#62627a"/><ellipse cx="267.2" cy="55.97" rx="13.62" ry="12.97" style="fill:#353542"/><path d="M232.7,77.83l46.6-5.76L309,55.93a243.75,243.75,0,0,0-75.65,2.88Z" style="fill:#62627a"/><rect x="217.26" y="46.99" width="10.89" height="39.21" transform="translate(445.42 133.18) rotate(-180)" style="fill:#62627a"/><polygon points="194.06 18.45 198.99 35.75 189.12 35.75 194.06 18.45" style="fill:#62627a"/><rect x="183.07" y="33.44" width="22.39" height="27.67" rx="11.2" transform="translate(388.53 94.55) rotate(180)" style="fill:#353542"/><ellipse cx="159.47" cy="4.04" rx="4.24" ry="4.04" style="fill:#353542"/><rect x="158.26" y="4.04" width="2.42" height="25.37" transform="translate(318.94 33.44) rotate(-180)" style="fill:#62627a"/><rect x="140.71" y="25.94" width="36.31" height="34.59" rx="9.79" transform="translate(317.73 86.48) rotate(-180)" style="fill:#353542"/><path d="M97.13,85H211.82V43.53a259.82,259.82,0,0,0-71.11-2c-34.29,3.83-41,11.78-43.58,16.14C91.49,67.28,94.75,78.85,97.13,85Z" style="fill:#62627a"/><path d="M163.1,78.41H197V49.58H163.1c-15.71-.49-26.2,8.57-26,15S147.88,79.21,163.1,78.41Z" style="fill:#8688a3"/><polygon points="307.74 41.41 321.66 36.43 318.87 29.32 304.94 34.3 307.74 41.41" style="fill:#353542"/><polygon points="52.63 60.71 23.71 51.19 24.81 48.69 53.73 58.21 52.63 60.71" style="fill:#62627a"/><ellipse cx="53.64" cy="61.61" rx="7.73" ry="6.7" style="fill:#353542"/><polygon points="91.39 58.92 86.21 53.25 80.56 58.5 80.09 69.41 85.27 75.08 90.92 69.83 91.39 58.92" style="fill:#62627a"/><path d="M73.23,72.89,28.14,76.1l1.78-14.52a153.32,153.32,0,0,1,23.61-.69,151.31,151.31,0,0,1,19.36,2.18Z" style="fill:#62627a"/><polygon points="30.61 54.09 22.7 51.52 24.29 47.85 32.2 50.42 30.61 54.09" style="fill:#353542"/><path d="M15.74,77.55a45.84,45.84,0,0,1,9.07,11H352.73A68.3,68.3,0,0,1,367.28,62C381,46.52,398,41.23,404.87,39.49c3.26-.82-57.3,8-95.62,13.84-62.35,9.48-111.16,10.16-167.63,11C81.49,65.13.32,62.94,0,67.74-.1,69.2,7.29,70.1,15.74,77.55Z" style="fill:#353542"/><polygon points="119.68 52.47 124.82 52.47 127.39 56.79 124.82 61.11 119.68 61.11 117.11 56.79 119.68 52.47" style="fill:#8688a3"/><polygon points="346.49 55.35 351.35 55.35 353.78 59.38 351.35 63.42 346.49 63.42 344.05 59.38 346.49 55.35" style="fill:#8688a3"/></svg>