<svg xmlns="http://www.w3.org/2000/svg" xmlns:xlink="http://www.w3.org/1999/xlink" viewBox="0 0 924 548"><defs><linearGradient id="a" x1="5.98" y1="194.67" x2="67.31" y2="194.67" gradientUnits="userSpaceOnUse"><stop offset="0" stop-color="#fff" stop-opacity="0"/><stop offset="0.01" stop-color="#fffefc" stop-opacity="0.01"/><stop offset="0.08" stop-color="#feeed4" stop-opacity="0.22"/><stop offset="0.17" stop-color="#fddfb0" stop-opacity="0.4"/><stop offset="0.25" stop-color="#fdd290" stop-opacity="0.56"/><stop offset="0.34" stop-color="#fcc876" stop-opacity="0.7"/><stop offset="0.44" stop-color="#fcbf60" stop-opacity="0.81"/><stop offset="0.54" stop-color="#fbb850" stop-opacity="0.89"/><stop offset="0.66" stop-color="#fbb444" stop-opacity="0.95"/><stop offset="0.8" stop-color="#fbb13d" stop-opacity="0.99"/><stop offset="1" stop-color="#fbb03b"/></linearGradient><linearGradient id="b" x1="639.98" y1="194.67" x2="701.31" y2="194.67" gradientTransform="matrix(-1, 0, 0, 1, 803, 0)" xlink:href="#a"/><linearGradient id="c" x1="67.5" y1="195.8" x2="101.5" y2="195.8" gradientUnits="userSpaceOnUse"><stop offset="0" stop-color="#fbb03b"/><stop offset="1" stop-color="#fbb03b"/></linearGradient><symbol id="d" viewBox="0 0 44.77 23.83"><path d="M30.51,17.44l1.52.93S31.68,3.63,32.62,0A49.46,49.46,0,0,0,30.51,17.44Z" style="fill:#0db14b"/><path d="M33.79,17.2,35,16.38s-.23-11.58.23-12.75C35.19,3.63,33.44,12.29,33.79,17.2Z" style="fill:#0db14b"/><path d="M23.52,22.54l-1.32-.82S22.46,10.13,21.94,9C21.94,9,23.91,17.63,23.52,22.54Z" style="fill:#0db14b"/><path d="M37.65,17.67l.82-.82.12-9.59S37.3,14.86,37.65,17.67Z" style="fill:#80c342"/><path d="M28.76,17.67s0-9.59-1.06-11.94c0,0,0,9-.35,10.77Z" style="fill:#01923e"/><path d="M44.77,21.55s0-9.59-1.06-11.93c0,0,0,9-.35,10.76Z" style="fill:#01923e"/><path d="M35.54,19.19s1.06-6.9,3.87-8.66c0,0-3,6.09-2.7,9.6Z" style="fill:#01923e"/><path d="M35.42,19.56s1.06-6.91,3.87-8.66c0,0-3,6.08-2.7,9.59Z" style="fill:#01923e"/><path d="M33.67,17.34S33.79,9,31.33,7C31.33,7,33,15,32.5,19Z" style="fill:#80c342"/><path d="M28.52,19.9s-.35-9.48,1.17-13.35c0,0-.58,12.76,0,15Z" style="fill:#0db14b"/><path d="M26.41,16s.12-6.55-.58-9.12c0,0-.12,9.94-.82,12.75Z" style="fill:#80c342"/><path d="M27.24,19.78s-.59-6.44-3.75-9.25c0,0,3.28,8.31,2.81,11Z" style="fill:#0db14b"/><path d="M43.12,18.08s-.58-6.44-3.74-9.25c0,0,3.28,8.31,2.81,11Z" style="fill:#0db14b"/><path d="M39.06,19.08a7.29,7.29,0,0,1,1.4-4.92s-.82,5.74-.35,7.61Z" style="fill:#0db14b"/><path d="M38.33,20.54s0-7.52,2.07-10.31c0,0-1.58,9.58-1.09,13.22Z" style="fill:#01923e"/><path d="M25.11,18.26S23.85,7.77,23.2,6.77c0,0,.83,10.93.31,13Z" style="fill:#80c342"/><path d="M34.33,19.81S35.18,11,36.4,8.41c0,0-.49,7.16-.49,9.1Z" style="fill:#80c342"/><path d="M40.52,20.29s.85-8.85,2.06-11.39c0,0-.49,7.15-.49,9.09Z" style="fill:#80c342"/><path d="M29.6,17.75S30.94,7.44,30,4c0,0,1.94,10.19,1,15.53Z" style="fill:#80c342"/><path d="M3.16,18l-1.52.76s.35-12-.59-15A33.66,33.66,0,0,1,3.16,18Z" style="fill:#0db14b"/><path d="M11.51,17.58l1.17-1S12.45,1.76,12.92.26C12.92.26,11.16,11.31,11.51,17.58Z" style="fill:#0db14b"/><path d="M10.16,22.92l1.31-.82s-.26-11.58.27-12.76C11.74,9.34,9.76,18,10.16,22.92Z" style="fill:#0db14b"/><path d="M15.37,18.05l.82-.82.12-9.6S15,15.24,15.37,18.05Z" style="fill:#80c342"/><path d="M4.91,18.05S4.91,8.46,6,6.12c0,0,0,9,.35,10.76Z" style="fill:#01923e"/><path d="M22.49,21.93s0-9.59-1-11.93c0,0,0,9-.35,10.76Z" style="fill:#01923e"/><path d="M13.27,19.57s1.05-6.9,3.86-8.66c0,0-3,6.09-2.69,9.6Z" style="fill:#01923e"/><path d="M0,17.72S-.11,9.41,2.34,7.42c0,0-1.64,8-1.17,11.94Z" style="fill:#80c342"/><path d="M5.15,20.28S5.5,10.79,4,6.93c0,0,.58,12.76,0,15Z" style="fill:#0db14b"/><path d="M7.26,16.35s-.12-6.55.59-9.13c0,0,.11,10,.81,12.76Z" style="fill:#80c342"/><path d="M20.85,18.46S20.26,12,17.1,9.21c0,0,3.28,8.31,2.81,11Z" style="fill:#0db14b"/><path d="M16.78,19.46a7.29,7.29,0,0,1,1.4-4.92s-.81,5.73-.35,7.61Z" style="fill:#0db14b"/><path d="M16.06,20.92s0-7.52,2.06-10.31c0,0-1.58,9.58-1.09,13.22Z" style="fill:#01923e"/><path d="M8.56,18.64S9.82,8.15,10.48,7.15c0,0-.84,10.93-.32,13Z" style="fill:#80c342"/><path d="M12.06,20.19s.85-8.86,2.06-11.4c0,0-.49,7.16-.49,9.09Z" style="fill:#80c342"/><path d="M18.24,20.68s.85-8.86,2.07-11.41c0,0-.49,7.16-.49,9.1Z" style="fill:#80c342"/><path d="M4.07,18.13S2.73,7.82,3.7,4.42c0,0-1.94,10.19-1,15.53Z" style="fill:#80c342"/><path d="M10.12,19.94s-1-6.91-3.86-8.66c0,0,3.05,6.08,2.69,9.59Z" style="fill:#01923e"/><path d="M16.83,20.16s-.58-6.44-3.74-9.25c0,0,3.28,8.31,2.81,11Z" style="fill:#0db14b"/></symbol></defs><title>ship-image</title><rect y="0.5" width="924" height="547.5" style="fill:#fffcdc"/><path d="M637.5,484.5c45.43-25.61,163.34-92.08,158-171-1.09-16.05-8-37.74-21-57-16.78-24.87-37.85-36.63-68-53-24.26-13.17-26.42-9.6-79-32-40.68-17.33-38.59-18.87-48-20-29.8-3.57-41.63,13-98,35-37.61,14.69-56.42,22-75,20-36.08-4-38.21-28.25-88-49-21.47-8.94-64.89-27.91-97-9-16.81,9.9-16.8,22.29-44,44a207.75,207.75,0,0,1-53,30c-51.64,19.57-78.45,1.3-92,15-25.79,26.08,18.88,143.9,108,221C213.1,521.3,298,542.21,362.62,548H448.4c1.85-.17,3.56-.34,5.1-.5C540.39,538.43,600.59,505.31,637.5,484.5Z" style="fill:#fffc9f"/><path d="M561.77.5c-2.66,7.15-3.4,14.06-.27,19,10,15.85,49-11.61,106,3,37.18,9.52,35.72,19,74,28,56.88,13.37,85.8-1.52,114,23,12.68,11,10,16.78,22,32,11.69,14.82,28.39,27.29,46.5,36.25V.5Z" style="fill:#fffdae"/><path d="M205.5,85.5c41.56-7.83,93.07-18.28,127-61A187,187,0,0,0,349.28,0H0V117.67A167.54,167.54,0,0,1,41.5,95.5C100.15,73.92,117.34,102.12,205.5,85.5Z" style="fill:#fffdae"/><path d="M88.5,543.5c46.51,13.49,96.71-31.28,139-69,22.4-20,78-69.6,66-114-1.45-5.35-7.8-23.07-23-36-13.66-11.62-21.78-10.71-42-21-17.88-9.1-19.47-13.82-50-36-9.65-7-26.93-19.56-46-31-53.88-32.32-70.18-24.62-93-50-16.17-18-10.76-24.92-29-44-1-1-4.85-4.86-10.5-9.63V431.74C34.7,471.13,43,530.3,88.5,543.5Z" style="fill:#ffff85"/><path d="M920.5,130.5a421.84,421.84,0,0,1-41,31c-12.77,8.53-22.57,14.1-33,20-35.12,19.87-42.6,20.51-67,35-33.8,20.07-26.44,23-44,30-39.56,15.77-66.1-3.48-81,14-9.13,10.69-.32,19.18-11,43-9.43,21.05-18.61,24.19-23,36-9.21,24.75,16.71,56.95,51,94,70.46,76.17,105.68,114.26,126,112,49.09-5.46,91.43-93.82,126.5-139V127.42C922.87,128.43,921.71,129.45,920.5,130.5Z" style="fill:#ffff85"/><path d="M908.5,359c-25.87,3.32-25.73-7.84-65-9.3-12.57-.47-17.62.49-52.81,0-14.17-.2-16.47-.33-18.32-.59-14.63-2-23.43-7.52-46.77-9.87-34.12-3.45-35.28,6.27-82.2,8.14-42.59,1.69-42.33-6.28-85.64-4.65-37.22,1.39-37.88,7.3-79.92,9.3-32,1.51-57.28-.69-75.36-2.33-42.73-3.87-48.69-8.64-75.35-10.46-12.3-.84-21.56-1.41-33.8.93-18.1,3.45-19.72,8.94-35.83,11.86a85.43,85.43,0,0,1-39-2.33c-23.83-6.8-23.53-17.74-43-22.09-15.49-3.45-16.34,3.33-48,5.82-30.29,2.38-30.69-3.73-48.14,1.16-20.92,5.86-24.78,15.89-40.86,15.11-11.84-.57-11.93-6.12-31-14-.9-.37-3.61-1.45-7.5-2.75V469.09c1.35,1.73,2.69,3.41,4,5,25.23,30.67,58.43,55,97.32,73.9h682c56.26-9.5,104.75-24.78,140.66-44V355.43A74.75,74.75,0,0,1,908.5,359Z" style="fill:#3f75a2"/><polygon points="53.11 183.14 6.5 171.61 6.5 194.67 6.5 217.73 53.11 206.2 67.83 202.56 67.83 186.78 53.11 183.14" style="fill:url(#a)"/><polygon points="115.89 183.14 162.5 171.61 162.5 194.67 162.5 217.73 115.89 206.2 101.17 202.56 101.17 186.78 115.89 183.14" style="fill:url(#b)"/><rect x="67.5" y="186.3" width="34" height="19" style="fill:url(#c)"/><polygon points="96.65 185.38 76.99 209.15 72.68 206.91 92.34 183.14 96.65 185.38" style="fill:#fff"/><polygon points="98.43 185.64 78.77 209.41 78.01 209.02 97.67 185.25 98.43 185.64" style="fill:#fff"/><polygon points="103.76 186.7 84.1 210.47 83.34 210.08 103.01 186.31 103.76 186.7" style="fill:#fff"/><rect x="63.5" y="180.77" width="42" height="4.07" style="fill:#cf0600;stroke:#000;stroke-miterlimit:10"/><rect x="83.5" y="145.5" width="2" height="15.6" style="fill:#cf2900;stroke:#000;stroke-miterlimit:10"/><polygon points="104.5 181.11 86.95 160.76 82.05 160.76 64.5 181.11 104.5 181.11" style="fill:#cf2900;stroke:#000;stroke-miterlimit:10"/><polygon points="103.63 207.56 65.76 207.56 64.77 220.19 104.37 216.97 103.63 207.56" style="fill:#cf2900;stroke:#000;stroke-miterlimit:10"/><polygon points="106.74 247.15 62.4 250.41 61.29 264.55 107.85 261.29 106.74 247.15" style="fill:#fff;stroke:#000;stroke-miterlimit:10"/><polygon points="104.37 216.97 64.77 220.19 63.59 235.21 63.53 235.97 105.57 232.27 104.37 216.97" style="fill:#fff;stroke:#000;stroke-miterlimit:10"/><polygon points="105.8 235.21 105.57 232.27 63.53 235.97 62.4 250.41 106.74 247.15 105.8 235.21" style="fill:#cf2900;stroke:#000;stroke-miterlimit:10"/><polygon points="57.1 317.89 54.5 351 114.89 351 112.01 314.24 57.1 317.89" style="fill:#fff;stroke:#000;stroke-miterlimit:10"/><polygon points="110.46 294.58 58.64 298.27 57.1 317.89 112.01 314.24 110.46 294.58" style="fill:#cf2900;stroke:#000;stroke-miterlimit:10"/><polygon points="109.07 276.87 60.06 280.16 58.64 298.27 110.46 294.58 109.07 276.87" style="fill:#fff;stroke:#000;stroke-miterlimit:10"/><polygon points="107.85 261.29 61.29 264.55 60.06 280.16 109.07 276.87 107.85 261.29" style="fill:#cf2900;stroke:#000;stroke-miterlimit:10"/><rect x="60.17" y="197.72" width="48.67" height="9.5" style="fill:none;stroke:#000;stroke-miterlimit:10;stroke-width:1.5px"/><line x1="63.17" y1="197.38" x2="63.17" y2="206.88" style="fill:none;stroke:#000;stroke-miterlimit:10;stroke-width:1.5px"/><line x1="69.5" y1="197.38" x2="69.5" y2="206.88" style="fill:none;stroke:#000;stroke-miterlimit:10;stroke-width:1.5px"/><line x1="66.5" y1="198.06" x2="66.5" y2="207.56" style="fill:none;stroke:#000;stroke-miterlimit:10;stroke-width:1.5px"/><line x1="72.83" y1="197.38" x2="72.83" y2="206.88" style="fill:none;stroke:#000;stroke-miterlimit:10;stroke-width:1.5px"/><line x1="76.17" y1="197.38" x2="76.17" y2="206.88" style="fill:none;stroke:#000;stroke-miterlimit:10;stroke-width:1.5px"/><line x1="79.5" y1="198.06" x2="79.5" y2="207.56" style="fill:none;stroke:#000;stroke-miterlimit:10;stroke-width:1.5px"/><line x1="82.83" y1="198.06" x2="82.83" y2="207.56" style="fill:none;stroke:#000;stroke-miterlimit:10;stroke-width:1.5px"/><line x1="90.17" y1="198.06" x2="90.17" y2="207.56" style="fill:none;stroke:#000;stroke-miterlimit:10;stroke-width:1.5px"/><line x1="94.17" y1="198.06" x2="94.17" y2="207.56" style="fill:none;stroke:#000;stroke-miterlimit:10;stroke-width:1.5px"/><line x1="97.5" y1="198.06" x2="97.5" y2="207.56" style="fill:none;stroke:#000;stroke-miterlimit:10;stroke-width:1.5px"/><line x1="100.83" y1="198.06" x2="100.83" y2="207.56" style="fill:none;stroke:#000;stroke-miterlimit:10;stroke-width:1.5px"/><line x1="106.17" y1="198.06" x2="106.17" y2="207.56" style="fill:none;stroke:#000;stroke-miterlimit:10;stroke-width:1.5px"/><line x1="103.83" y1="198.06" x2="103.83" y2="207.56" style="fill:none;stroke:#000;stroke-miterlimit:10;stroke-width:1.5px"/><line x1="86.17" y1="198.06" x2="86.17" y2="207.56" style="fill:none;stroke:#000;stroke-miterlimit:10;stroke-width:1.5px"/><line x1="60.17" y1="206.54" x2="64.83" y2="215.36" style="fill:none;stroke:#000;stroke-miterlimit:10"/><line x1="108.83" y1="206.54" x2="104.17" y2="215.36" style="fill:none;stroke:#000;stroke-miterlimit:10"/><line x1="84.83" y1="207.22" x2="84.83" y2="216.03" style="fill:none;stroke:#000;stroke-miterlimit:10"/><rect x="78.17" y="326.58" width="12.67" height="24.42" style="fill:#f3ee3b"/><rect x="79.5" y="327.94" width="10" height="23.06" style="fill:#2d2d2a"/><rect x="80.17" y="301.49" width="8.67" height="8.82" style="fill:#f3ee3b"/><rect x="81.5" y="302.85" width="6" height="6.1" style="fill:#2d2d2a"/><rect x="80.17" y="266.22" width="8.67" height="8.82" style="fill:#f3ee3b"/><rect x="81.5" y="267.58" width="6" height="6.1" style="fill:#2d2d2a"/><rect x="80.17" y="237.06" width="8.67" height="8.82" style="fill:#f3ee3b"/><rect x="81.5" y="238.42" width="6" height="6.1" style="fill:#2d2d2a"/><rect x="65.5" y="184.84" width="38" height="23.06" style="fill:none;stroke:#000;stroke-miterlimit:10"/><path d="M17.85,387.5c-3.2-9.55,11-26.12,25.18-33.41C48,351.54,55.2,349,80.78,350c22.72.93,34.27,1.39,49.61,5.71,22.42,6.3,57.13,22,55.53,31.78-.58,3.52-5.9,6.59-108.1,8.15C36.56,396.29,20.71,396.05,17.85,387.5Z" style="fill:#2c702c"/><use width="44.77" height="23.83" transform="matrix(0.86, 0.2, -0.18, 0.94, 117.43, 340.05)" xlink:href="#d"/><use width="44.77" height="23.83" transform="matrix(0.86, 0.2, -0.18, 0.94, 108.55, 345.76)" xlink:href="#d"/><use width="44.77" height="23.83" transform="matrix(0.81, 0.37, -0.33, 0.88, 151.4, 348.31)" xlink:href="#d"/><use width="44.77" height="23.83" transform="matrix(0.81, 0.37, -0.33, 0.88, 144, 356.46)" xlink:href="#d"/><use width="44.77" height="23.83" transform="matrix(0.82, 0.34, -0.3, 0.9, 119.68, 353.8)" xlink:href="#d"/><use width="44.77" height="23.83" transform="matrix(0.85, 0.22, -0.2, 0.93, 125.85, 362.52)" xlink:href="#d"/><use width="44.77" height="23.83" transform="matrix(0.87, 0.11, -0.1, 0.95, 99.89, 367.96)" xlink:href="#d"/><use width="44.77" height="23.83" transform="matrix(0.87, 0.11, -0.1, 0.95, 86.56, 354.92)" xlink:href="#d"/><use width="44.77" height="23.83" transform="matrix(0.87, 0.11, -0.1, 0.95, 90.27, 338.61)" xlink:href="#d"/><use width="44.77" height="23.83" transform="matrix(0.87, 0.11, -0.1, 0.95, 65.83, 341.06)" xlink:href="#d"/><use width="44.77" height="23.83" transform="matrix(0.87, 0.11, -0.1, 0.95, 51.03, 337.8)" xlink:href="#d"/><use width="44.77" height="23.83" transform="matrix(0.78, -0.43, 0.39, 0.86, 17.51, 355.17)" xlink:href="#d"/><use width="44.77" height="23.83" transform="matrix(0.82, -0.33, 0.3, 0.9, 15.49, 364.62)" xlink:href="#d"/><use width="44.77" height="23.83" transform="matrix(0.88, -0.01, 0.01, 0.96, 45.92, 349.33)" xlink:href="#d"/><use width="44.77" height="23.83" transform="matrix(0.88, -0.01, 0.01, 0.96, 51.85, 358.29)" xlink:href="#d"/><use width="44.77" height="23.83" transform="matrix(0.85, -0.24, 0.22, 0.93, 11.46, 370.38)" xlink:href="#d"/><use width="44.77" height="23.83" transform="matrix(0.85, -0.24, 0.22, 0.93, 15.9, 376.9)" xlink:href="#d"/><use width="44.77" height="23.83" transform="matrix(0.88, 0.02, -0.02, 0.96, 52.86, 365.08)" xlink:href="#d"/><use width="44.77" height="23.83" transform="matrix(0.88, 0.02, -0.02, 0.96, 26.95, 376.49)" xlink:href="#d"/><use width="44.77" height="23.83" transform="matrix(0.88, 0.02, -0.02, 0.96, 59.52, 377.3)" xlink:href="#d"/><use width="44.77" height="23.83" transform="matrix(0.88, 0.02, -0.02, 0.96, 74.33, 365.89)" xlink:href="#d"/><use width="44.77" height="23.83" transform="matrix(0.88, 0.02, -0.02, 0.96, 90.62, 375.67)" xlink:href="#d"/><use width="44.77" height="23.83" transform="matrix(0.88, 0.02, -0.02, 0.96, 124.67, 374.04)" xlink:href="#d"/><use width="44.77" height="23.83" transform="matrix(0.88, 0.02, -0.02, 0.96, 147.63, 373.23)" xlink:href="#d"/><use width="44.77" height="23.83" transform="matrix(0.88, 0.02, -0.02, 0.96, 72.11, 340.62)" xlink:href="#d"/><rect x="377.1" y="294.87" width="90" height="9" transform="translate(134.02 -130.52) rotate(20.83)" style="fill:#7f7f7f"/><circle cx="465.5" cy="322.57" r="22.5" style="fill:#494949"/><path d="M522.5,360.5l-77-10-49-28a383.92,383.92,0,0,1,125,5Q522,344,522.5,360.5Z" style="fill:#7f7f7f"/><rect x="530" y="307" width="18" height="68" style="fill:#7f7f7f"/><polygon points="586.35 257.5 578.2 287.5 594.5 287.5 586.35 257.5" style="fill:#7f7f7f"/><rect x="567.5" y="283.5" width="37" height="48" rx="13.78" style="fill:#494949"/><circle cx="643.5" cy="232.5" r="7" style="fill:#494949"/><rect x="641.5" y="232.5" width="4" height="44" style="fill:#7f7f7f"/><rect x="614.5" y="270.5" width="60" height="60" rx="9.79" style="fill:#494949"/><path d="M746.5,373H557V301a409.65,409.65,0,0,1,117.5-3.5c56.66,6.64,67.77,20.43,72,28C755.82,342.19,750.44,362.26,746.5,373Z" style="fill:#7f7f7f"/><path d="M637.5,361.5h-56v-50h56c26-.86,43.29,14.86,43,26C680.21,348.47,662.66,362.89,637.5,361.5Z" style="fill:#aaa"/><rect x="377.02" y="280.26" width="24.58" height="13.16" transform="translate(125.53 -118.45) rotate(20.56)" style="fill:#494949"/><polygon points="820.04 330.81 867.82 314.29 866.01 309.95 818.22 326.46 820.04 330.81" style="fill:#7f7f7f"/><ellipse cx="818.38" cy="332.35" rx="12.78" ry="11.61" style="fill:#494949"/><polygon points="756 327.69 764.56 317.87 773.89 326.96 774.66 345.89 766.1 355.72 756.77 346.62 756 327.69" style="fill:#7f7f7f"/><path d="M786,351.93l74.5,5.57-2.93-25.18a239.5,239.5,0,0,0-71,2.58Z" style="fill:#7f7f7f"/><polygon points="856.43 319.32 869.5 314.86 866.87 308.5 853.8 312.95 856.43 319.32" style="fill:#494949"/><path d="M881,360a79.23,79.23,0,0,0-15,19H324.16a120.42,120.42,0,0,0-24-46c-22.64-26.82-50.81-36-62.12-39-5.38-1.43,94.69,13.9,158,24,103,16.44,183.69,17.63,277,19,99.35,1.46,233.47-2.34,234,6C907.16,345.52,895,347.09,881,360Z" style="fill:#494949"/><polygon points="709.25 316.5 700.75 316.5 696.5 324 700.75 331.5 709.25 331.5 713.5 324 709.25 316.5" style="fill:#aaa"/><polygon points="334.48 321.5 326.44 321.5 322.42 328.5 326.44 335.49 334.48 335.49 338.5 328.5 334.48 321.5" style="fill:#aaa"/><path d="M899.5,378.5a92.16,92.16,0,0,1-20.91-2.94c-15.16-4-20.17-10.39-40.1-8.06-17.28,2-27.69,7.7-54.8,9-28.57,1.37-33.6-6.27-65.09-9-34.12-3-35.28,5.39-82.2,7-42.59,1.46-42.33-5.4-85.64-4-37.22,1.2-37.88,6.29-79.92,8-32,1.3-57.28-.59-75.36-2-42.73-3.33-48.69-7.44-75.35-9-50.18-2.94-52.57,10.21-100.48,11-75.34,1.24-97.59-31.16-147.29-15-26.88,8.74-27,20.39-52.52,24A87,87,0,0,1,0,388V485.1a640.6,640.6,0,0,1,95.34,62.4h678c11.84-.73,89.5-6.14,150.62-33.07V375.3A65.32,65.32,0,0,1,899.5,378.5Z" style="fill:#315a7d"/><path d="M866.5,413.5c-32.3,2.13-33.93,16.15-61,15-33.51-1.42-37.55-23.24-67-23-31.61.26-33.65,25.46-67,28-34.14,2.6-40.69-23.14-80-20-22,1.76-26.4,10.33-48,8-24.35-2.62-27.64-14.46-45-13-25.32,2.13-27.85,28.12-51,30-23.54,1.91-29.3-24.59-57-24-20,.42-21.95,13.73-47,15-15.93.81-29.66-3.83-42-8-19.58-6.62-23.28-12.08-39-14-11.78-1.44-20.92.25-30,2-31.36,6.05-32.25,16.78-48,17-29.6.41-39.3-37.4-67-34-.66.08-9.78,4.39-28,13-25.73,12.16-30.5,14.53-38,14-13.48-1-13.11-9.68-29-15-2.62-.88-7.34-2.18-22.5-.28v115A447,447,0,0,1,51.5,546.5l1.63,1H924V425.25C899,420.51,892.67,411.78,866.5,413.5Z" style="fill:#3f75a2"/><path d="M912.5,440.5c-15.5,3.33-16.25,18.27-31,19-15.42.77-19.85-15.31-34-14-14.49,1.34-14.93,18.68-33,24s-36.26-6.28-39-8c-15.51-9.77-13.55-19.53-25-23-5.21-1.58-12.08-1.52-43,15-25.38,13.56-23.11,14.78-35,20-14,6.17-39.8,17.47-61,8-19.15-8.56-14.88-25.27-32-31-23.39-7.83-54.55,15.63-63,22-16.18,12.18-20.77,21.78-33,22-9.79.17-13.48-5.87-28-15-10.54-6.63-44.81-28.18-69-18-14.13,5.95-12.47,17.54-25,20-17.07,3.36-23.35-17.51-46-20-24.2-2.66-34.35,19.25-51,13-16.89-6.35-14.57-31.95-30-35-7.35-1.45-10.2,3.9-30,14-20.14,10.27-30.21,15.4-42,15-21.67-.74-23.2-19.19-46-22-16.43-2-18.27,7.23-49,13-10.22,1.92-27.39,5.14-48,2A95.6,95.6,0,0,1,0,456.66V547.5H924V440.91A23.17,23.17,0,0,0,912.5,440.5Z" style="fill:#568ebd"/><path d="M924,490c-12.37-4.79-26.93-7.94-37.5-2.49-11.71,6-6,18.84-19,31-16.29,15.23-49,17.85-68,4s-13.77-36.41-31-42c-14.4-4.67-31,6.88-37,11-13.75,9.53-12.27,16.34-23,25-27.13,21.89-69.59,10-73,9-23.06-6.79-22.76-19.24-45-23-5.33-.9-24.29-3.85-42,6-18,10-15.34,22.46-27,26-25,7.58-52.89-45.69-75-37-11.82,4.65-8.22,19.89-23,27-11.35,5.46-24.72,1-51-8-29-10-35.44-17.19-49-14-13.2,3.1-13.62,11.46-25,12-18.27.87-26.6-20.22-39-17-8.82,2.29-6,13.92-18,24-11.45,9.59-29.53,12.25-43,7-5.88-2.29-12.59-8.86-26-22-12.72-12.46-14.36-15.94-20-17-11.33-2.14-17.21,9.52-30,15-25,10.7-39.89-17.77-72-17C27.63,488.05,13.89,501.44,0,513V547.6l456,.4H924Z" style="fill:#7ba7cc"/></svg>