<svg xmlns="http://www.w3.org/2000/svg" viewBox="0 0 924.5 548"><title>sub-ship-image</title><rect y="0.5" width="924" height="547.5" style="fill:#fffcdc"/><path d="M637.5,484.5c45.43-25.61,163.34-92.08,158-171-1.09-16.05-8-37.74-21-57-16.78-24.87-37.85-36.63-68-53-24.26-13.17-26.42-9.6-79-32-40.68-17.33-38.59-18.87-48-20-29.8-3.57-41.63,13-98,35-37.61,14.69-56.42,22-75,20-36.08-4-38.21-28.25-88-49-21.47-8.94-64.89-27.91-97-9-16.81,9.9-16.8,22.29-44,44a207.75,207.75,0,0,1-53,30c-51.64,19.57-78.45,1.3-92,15-25.79,26.08,18.88,143.9,108,221C213.1,521.3,298,542.21,362.62,548H448.4c1.85-.17,3.56-.34,5.1-.5C540.39,538.43,600.59,505.31,637.5,484.5Z" style="fill:#e0ffc0"/><path d="M561.77.5c-2.66,7.15-3.4,14.06-.27,19,10,15.85,49-11.61,106,3,37.18,9.52,35.72,19,74,28,56.88,13.37,85.8-1.52,114,23,12.68,11,10,16.78,22,32,11.69,14.82,28.39,27.29,46.5,36.25V.5Z" style="fill:#fffdae"/><path d="M205.5,85.5c41.56-7.83,93.07-18.28,127-61A187,187,0,0,0,349.28,0H0V117.67A167.54,167.54,0,0,1,41.5,95.5C100.15,73.92,117.34,102.12,205.5,85.5Z" style="fill:#fffdae"/><path d="M241.5,152.5c-2.49,5.05,9.87,11.25,9,22-.92,11.32-15.51,15.4-14,22,1.8,7.83,23.55,7.37,24,13,.37,4.67-14.38,7.76-14,12,.53,5.91,29.71,6.41,30,11,.3,4.78-31.09,7.27-32,16-1,9.2,33.08,14.4,34,30,.44,7.36-6.6,15.26-12,19-3.8,2.63-5.75,2.49-12,5-6.43,2.58-19.78,7.94-22,14-3.53,9.64,17.38,31.14,44,43,34.19,15.23,46.45.59,124,5,26.84,1.53,40.84,4.16,46-4,7.24-11.46-6.91-37.92-24-54-17.46-16.42-34.21-18.46-35-30s15.16-15.69,14-27c-.8-7.81-11.21-14-32-26-20.31-11.74-27.23-12.72-32-22-4.07-7.91-1.6-12.17-7-20-2.74-4-6.33-7.15-20-14-15.63-7.83-26.12-13.08-42-16C260.77,150.08,244.19,147,241.5,152.5Z" style="fill:#c2ff88"/><path d="M573.5,162.5c-1.48-2.74-26.61,2.41-46,20-13.59,12.33-11.64,19.22-24,26-4.95,2.71-8.42,3.34-39,7-25.16,3-30.82,3.55-33,8-2.88,5.86,2.5,14,10,25,15.22,22.36,29.87,31.59,28,35-2.76,5-36.21-12-40-6-3,4.77,13.35,23.23,30,36,14.61,11.21,21.73,12.13,24,20,4.4,15.28-17.89,27.69-14,36,4.93,10.53,42.72-5.23,104-7,32.29-.94,48.19,2.68,50-3,2.54-8-23.87-30.39-54-34-15.75-1.88-30.42,1.62-32-3-1.89-5.53,17.89-14.05,16-23-1.55-7.35-16.51-9.21-16-13s14.45-2,17-8c2.62-6.2-10.34-12.2-10-23,.32-9.94,11.73-19.05,22-22,14-4,25.92,3.44,27,1s-11.18-10.82-22-16a75,75,0,0,0-20-7c-14.79-2.72-22.45,1.1-24-2-1.1-2.2,1.57-6.48,21-24S574.33,164,573.5,162.5Z" style="fill:#c2ff88"/><path d="M88.5,543.5c46.51,13.49,96.71-31.28,139-69,22.4-20,78-69.6,66-114-1.45-5.35-7.8-23.07-23-36-13.66-11.62-21.78-10.71-42-21-17.88-9.1-19.47-13.82-50-36-9.65-7-26.93-19.56-46-31-53.88-32.32-70.18-24.62-93-50-16.17-18-10.76-24.92-29-44-1-1-4.85-4.86-10.5-9.63V431.74C34.7,471.13,43,530.3,88.5,543.5Z" style="fill:#c2ff88"/><path d="M920.5,130.5a421.84,421.84,0,0,1-41,31c-12.77,8.53-22.57,14.1-33,20-35.12,19.87-42.6,20.51-67,35-33.8,20.07-26.44,23-44,30-39.56,15.77-66.1-3.48-81,14-9.13,10.69-.32,19.18-11,43-9.43,21.05-18.61,24.19-23,36-9.21,24.75,16.71,56.95,51,94,70.46,76.17,105.68,114.26,126,112,49.09-5.46,91.43-93.82,126.5-139V127.42C922.87,128.43,921.71,129.45,920.5,130.5Z" style="fill:#c2ff88"/><path d="M908.5,359a57.44,57.44,0,0,1-14.88.24A96.63,96.63,0,0,1,869,352.77a173.56,173.56,0,0,0-43.5-11.27c-27-2.88-26.88,10.47-53.13,7.63-16.67-1.8-21.37-7.31-46.77-9.87-34.12-3.45-35.28,6.27-82.2,8.14a242.23,242.23,0,0,1-27-.38c-35.84-2.94-39.54-20.58-61.87-18.52-18.94,1.74-19.63,14.74-49.24,21.12-8.64,1.86-5,1.36-27.42,2.43-60.74,2.88-67.88,3.08-75.36-2.33-7.7-5.58-7-9.79-16-14.22-12.56-6.23-25.6-3.73-34-2-25,5.15-28,17-56,23-8,1.71-16.72,2.65-20,3-14.29,1.53-21.43,2.3-29,1-3.27-.56-11.89-4-29-10.78-8.18-3.25-12.26-4.88-13.79-5.57-18.26-8.33-21.5-14.35-29.21-16.52-13.19-3.7-21.4,8.94-41,18.87C90.81,368.63,41,351.68,31.86,348.58A141.35,141.35,0,0,1,0,333V469.09c1.35,1.73,2.69,3.41,4,5,25.23,30.67,58.43,55,97.32,73.9h682c56.26-9.5,104.75-24.78,140.66-44V355.43A74.75,74.75,0,0,1,908.5,359Z" style="fill:#3f75a2"/><polygon points="293.47 344.74 344.38 326.29 342.44 321.44 291.53 339.89 293.47 344.74" style="fill:#7f7f7f"/><ellipse cx="291.7" cy="346.47" rx="13.62" ry="12.97" style="fill:#494949"/><path d="M257.2,368.33l46.6-5.76,29.65-16.14a243.75,243.75,0,0,0-75.65,2.88Z" style="fill:#7f7f7f"/><rect x="241.76" y="337.49" width="10.89" height="39.21" transform="translate(494.42 714.18) rotate(-180)" style="fill:#7f7f7f"/><polygon points="218.56 308.95 223.49 326.25 213.62 326.25 218.56 308.95" style="fill:#7f7f7f"/><rect x="207.57" y="323.94" width="22.39" height="27.67" rx="11.2" transform="translate(437.53 675.55) rotate(180)" style="fill:#494949"/><ellipse cx="183.97" cy="294.54" rx="4.24" ry="4.04" style="fill:#494949"/><rect x="182.76" y="294.54" width="2.42" height="25.37" transform="translate(367.94 614.44) rotate(-180)" style="fill:#7f7f7f"/><rect x="165.21" y="316.44" width="36.31" height="34.59" rx="9.79" transform="translate(366.73 667.48) rotate(-180)" style="fill:#494949"/><path d="M121.63,375.54H236.32V334a259.82,259.82,0,0,0-71.11-2c-34.29,3.83-41,11.78-43.58,16.14C116,357.78,119.25,369.35,121.63,375.54Z" style="fill:#7f7f7f"/><path d="M187.6,368.91h33.89V340.08H187.6c-15.71-.49-26.2,8.57-26,15S172.38,369.71,187.6,368.91Z" style="fill:#aaa"/><polygon points="332.24 331.9 346.16 326.93 343.37 319.82 329.44 324.8 332.24 331.9" style="fill:#494949"/><polygon points="77.13 351.21 48.21 341.69 49.31 339.19 78.23 348.71 77.13 351.21" style="fill:#7f7f7f"/><ellipse cx="78.14" cy="352.11" rx="7.73" ry="6.7" style="fill:#494949"/><polygon points="115.89 349.42 110.71 343.75 105.06 349 104.59 359.91 109.77 365.58 115.42 360.33 115.89 349.42" style="fill:#7f7f7f"/><path d="M97.73,363.39,52.64,366.6l1.78-14.52A153.32,153.32,0,0,1,78,351.39a151.31,151.31,0,0,1,19.36,2.18Z" style="fill:#7f7f7f"/><polygon points="55.11 344.59 47.2 342.02 48.78 338.35 56.7 340.92 55.11 344.59" style="fill:#494949"/><path d="M40.24,368.05A45.84,45.84,0,0,1,49.31,379H377.23a68.3,68.3,0,0,1,14.55-26.52c13.7-15.46,30.75-20.75,37.59-22.49,3.26-.82-57.3,8-95.62,13.84-62.35,9.48-111.16,10.16-167.63,11-60.13.84-141.3-1.35-141.62,3.45C24.4,359.7,31.79,360.6,40.24,368.05Z" style="fill:#494949"/><polygon points="144.18 342.97 149.32 342.97 151.89 347.29 149.32 351.61 144.18 351.61 141.6 347.29 144.18 342.97" style="fill:#aaa"/><polygon points="370.99 345.85 375.85 345.85 378.28 349.88 375.85 353.92 370.99 353.92 368.55 349.88 370.99 345.85" style="fill:#aaa"/><rect x="709.5" y="306.5" width="6" height="27" style="fill:#aaa"/><rect x="603.5" y="315.5" width="5" height="41" style="fill:#aaa"/><rect x="686.5" y="319.5" width="51" height="29" rx="11.29" style="fill:#494949"/><path d="M759.5,369.5h-96c-2.9-1.48-7-4.25-9-9-3.73-8.72.75-21,12-29,13.5-3.68,41-8.93,71,2a108.37,108.37,0,0,1,22,11Z" style="fill:#aaa"/><rect x="868.5" y="352.5" width="22" height="40" style="fill:#494949"/><path d="M548.5,347.5a37,37,0,0,0,0,74h295l65-40c-50.15-11.55-117.8-24.88-190-32-43.83-4.32-74.27-4.88-86-5C599.09,344.15,570.5,345.69,548.5,347.5Z" style="fill:#494949"/><path d="M885.31,377.07c-12.36-2.42-12.2-5-24.81-7.57a90.43,90.43,0,0,0-22-2c-13.55.51-14.79,3.92-36.57,7.23a177.59,177.59,0,0,1-18.23,1.77c-28.57,1.37-33.6-6.27-65.09-9a128.58,128.58,0,0,0-21.37-.33c-7.65.59-19,1.05-32.28,5.05-16.14,4.85-15.13,8.59-24.45,9.28-13.85,1-16-7.25-31.2-7.33-14.1-.08-14.72,7.05-27.8,6.33-13.29-.73-14.72-8.19-30.74-10-4.53-.51-10.64.17-22.67,1.56-8,.92-18.31,2.11-29.74,4.34-32,6.23-29.7,12.2-45.85,13.1-19.27,1.08-20.74-7.53-57-13-12.92-1.95-10.72-.56-29.7-3.07-31.34-4.15-33.41-7.43-45.65-5.93-18.81,2.31-17.68,10.52-36.63,12-13.62,1.06-17.21-2.94-37.67-3-11.12,0-17.46,1.65-26.18,2a575.53,575.53,0,0,1-62.15,0c-51.22-3-47.82-10.7-71-7C78,372.86,52.55,376.92,35,383.45a66.9,66.9,0,0,1-15.19,4.05A87,87,0,0,1,0,388V485.1a640.6,640.6,0,0,1,95.34,62.4h678c11.84-.73,89.5-6.14,150.62-33.07V375.3a72,72,0,0,1-11,2.62A80,80,0,0,1,885.31,377.07Z" style="fill:#315a7d"/><path d="M866.5,413.5c-32.3,2.13-33.93,16.15-61,15-33.51-1.42-37.55-23.24-67-23-31.61.26-33.65,25.46-67,28-34.14,2.6-40.69-23.14-80-20-22,1.76-26.4,10.33-48,8-24.35-2.62-27.64-14.46-45-13-25.32,2.13-27.85,28.12-51,30-23.54,1.91-29.3-24.59-57-24-20,.42-21.95,13.73-47,15-15.93.81-29.66-3.83-42-8-19.58-6.62-23.28-12.08-39-14-11.78-1.44-20.92.25-30,2-31.36,6.05-32.25,16.78-48,17-29.6.41-39.3-37.4-67-34-.66.08-9.78,4.39-28,13-25.73,12.16-30.5,14.53-38,14-13.48-1-13.11-9.68-29-15-2.62-.88-7.34-2.18-22.5-.28v115A447,447,0,0,1,51.5,546.5l1.63,1H924V425.25C899,420.51,892.67,411.78,866.5,413.5Z" style="fill:#3f75a2"/><path d="M912.5,440.5c-15.5,3.33-16.25,18.27-31,19-15.42.77-19.85-15.31-34-14-14.49,1.34-14.93,18.68-33,24s-36.26-6.28-39-8c-15.51-9.77-13.55-19.53-25-23-5.21-1.58-12.08-1.52-43,15-25.38,13.56-23.11,14.78-35,20-14,6.17-39.8,17.47-61,8-19.15-8.56-14.88-25.27-32-31-23.39-7.83-54.55,15.63-63,22-16.18,12.18-20.77,21.78-33,22-9.79.17-13.48-5.87-28-15-10.54-6.63-44.81-28.18-69-18-14.13,5.95-12.47,17.54-25,20-17.07,3.36-23.35-17.51-46-20-24.2-2.66-34.35,19.25-51,13-16.89-6.35-14.57-31.95-30-35-7.35-1.45-10.2,3.9-30,14-20.14,10.27-30.21,15.4-42,15-21.67-.74-23.2-19.19-46-22-16.43-2-18.27,7.23-49,13-10.22,1.92-27.39,5.14-48,2A95.6,95.6,0,0,1,0,456.66V547.5H924V440.91A23.17,23.17,0,0,0,912.5,440.5Z" style="fill:#568ebd"/><path d="M924,490c-12.37-4.79-26.93-7.94-37.5-2.49-11.71,6-6,18.84-19,31-16.29,15.23-49,17.85-68,4s-13.77-36.41-31-42c-14.4-4.67-31,6.88-37,11-13.75,9.53-12.27,16.34-23,25-27.13,21.89-69.59,10-73,9-23.06-6.79-22.76-19.24-45-23-5.33-.9-24.29-3.85-42,6-18,10-15.34,22.46-27,26-25,7.58-52.89-45.69-75-37-11.82,4.65-8.22,19.89-23,27-11.35,5.46-24.72,1-51-8-29-10-35.44-17.19-49-14-13.2,3.1-13.62,11.46-25,12-18.27.87-26.6-20.22-39-17-8.82,2.29-6,13.92-18,24-11.45,9.59-29.53,12.25-43,7-5.88-2.29-12.59-8.86-26-22-12.72-12.46-14.36-15.94-20-17-11.33-2.14-17.21,9.52-30,15-25,10.7-39.89-17.77-72-17C27.63,488.05,13.89,501.44,0,513V547.6l456,.4H924Z" style="fill:#7ba7cc"/><polygon points="545.45 365.16 539.94 365.38 536.99 360.73 539.55 355.84 545.06 355.62 548.01 360.27 545.45 365.16" style="fill:#aaa"/><circle cx="677" cy="337" r="5.5" style="fill:#494949"/><path d="M201.5,297.5c-7-9.84-16.45-9.85-33-18-16.77-8.26-12.78-11.09-26-17-20.94-9.37-30.1-1.9-49-13-2.71-1.59-16.2-9.52-15-17,1-5.92,10.47-7.61,10-11-.51-3.72-12.21-3.46-26-7-8.74-2.24-25.6-6.56-37-19-7.58-8.27-4.5-11.14-17-30a112.33,112.33,0,0,0-8-10.84V194a142.24,142.24,0,0,1,11,11.46c6.83,7.94,18,21.12,14,29-3,5.94-13.24,6.31-13,8,.39,2.74,27.06-1,29,5,1.48,4.58-12.44,11.61-11,15,1.93,4.55,28.23-5.42,32,1,3.32,5.66-13.58,19.38-11,23,3.79,5.32,43.48-19.79,49-13,4,4.9-13.57,21.76-9,28,4,5.39,18.13-5.67,41-4,5.14.38,5.42,1,40,12,23.21,7.38,30.14,9.34,33,6C208.73,311.73,205.33,302.91,201.5,297.5Z" style="fill:#aff763"/><path d="M910.5,152.5c-12.12,4.58-20.4,12.05-27,18-13.9,12.54-11.4,16-22,24-15.18,11.47-22.16,5.8-35,17-12.28,10.71-8.23,17.94-19,24-13.09,7.36-22.55-1.37-34,7-8,5.83-5.09,11.31-14,18-10,7.51-22.29,7.14-27,7-10.22-.31-10.59-3.32-31-7-11.93-2.15-16.48-2-21,0-6.91,3-10.65,8.83-12,11-4.61,7.39-2.61,11.17-6,21-4.66,13.52-12.5,18.16-11,20,2.2,2.69,21.59-3.95,27-18,3.16-8.2.51-16.24,3-17,3.54-1.08,9.45,15,15,14,4.23-.76,3.39-10.57,8-12,7-2.19,14.24,19.09,26,19,10-.08,12.27-15.39,23-16,11.61-.66,16.14,16.88,26,16,12.94-1.15,15.32-32.27,27-33,10.77-.67,17.06,25.28,28,24,7.75-.91,7.88-14.32,18-17,11-2.9,19.42,10.58,26,7,5.89-3.21-.06-14.48,6-29,6.72-16.1,21.94-21.11,20-26-2.31-5.83-24.65-.44-26-5-1.09-3.69,13.57-7.05,22-21,6.22-10.3,2.17-15,7-24,3.8-7.09,10.27-11.57,17-14.56v-11A67.26,67.26,0,0,0,910.5,152.5Z" style="fill:#aff763"/></svg>