<svg xmlns="http://www.w3.org/2000/svg" viewBox="0 0 720 181"><defs><style>.a{fill:#636363;}.a,.b,.c{stroke:#000;stroke-miterlimit:10;}.b{fill:#8e8e8e;}.c{fill:#bfbfbf;}.d{fill:#606060;}.e{fill:#707d82;}.f{fill:#a2b6bc;}.g{fill:#e0e0e0;}</style></defs><title>submarine</title><rect class="a" x="37.17" y="17.01" width="42.46" height="148.56"/><rect class="a" x="435.76" y="0.5" width="42.46" height="180"/><path class="b" d="M446.61,16.77c-3.8,0-8.89.05-15.27.05,0,0-44.46.05-94,3.33C249,26,196.54,28.85,129.82,43.85,103.38,49.8,82.07,55.93,68.06,60.24,49.91,66,35.26,71.57,24.63,76,4.86,84.11.5,87.36.5,90.89c0,3.89,5.28,7.06,24.13,14.94,10.66,4.45,25.34,10.28,43.43,16.5,13.73,3.8,35.15,9.41,61.76,15,70.08,14.75,124.71,18.55,203.64,24.29,9.49.69,49.44,4,97.88,4.11,6.34,0,11.3.08,15,.08C644.5,166,674.26,149,686.51,140.39c6.21-4.35,32.9-23,33-49.1.08-24.39-23.18-42.12-28.8-46.4C654.74,17.49,584.87,16.88,446.61,16.77Z"/><path class="c" d="M132.72,100.33H68.06c-3.86-.43-38.68-4.4-38.61-9.44s33.45-8.24,37.64-8.64h65.63Z"/><rect class="c" x="225.37" y="53.95" width="181.44" height="74.67" rx="36.3"/><rect class="d" x="249.5" y="70.46" width="83.96" height="42.45" rx="20.63"/><ellipse class="e" cx="374.48" cy="91.29" rx="8.2" ry="6.68"/><ellipse class="f" cx="456.51" cy="91.29" rx="11.58" ry="9.43"/><ellipse class="g" cx="374.48" cy="91.29" rx="2.9" ry="2.36"/></svg>