<svg xmlns="http://www.w3.org/2000/svg" viewBox="0 0 139 280"><title>amy-dunne</title><path d="M118,280c0-9.11-9.4-16.5-21-16.5H75V280Z" style="fill:#999"/><path d="M42,263.5c-11.6,0-21,7.39-21,16.5H63V263.5Z" style="fill:#999"/><path d="M16.89,105.5A14.51,14.51,0,0,0,2.5,120.13h0V154h15l-.32-48.5Z" style="fill:#666"/><path d="M117,105.5H21l.49,67.1c0,10.16,9.3,18.4,20.77,18.4H96.73c11.47,0,20.77-8.24,20.77-18.4Q117.26,139,117,105.5Z" style="fill:gray"/><path d="M42,226.47a20,20,0,0,0,20,20h1v-51H42Z" style="fill:#666"/><path d="M75,246.5h2a19.94,19.94,0,0,0,20-19.84V196H75Z" style="fill:#666"/><line x1="56" y1="245.5" x2="56" y2="263.5" style="fill:none;stroke:#000;stroke-miterlimit:10"/><line x1="82" y1="246" x2="82" y2="264" style="fill:none;stroke:#000;stroke-miterlimit:10"/><path d="M17.39,190.22A10,10,0,1,0,0,183.5a9.94,9.94,0,0,0,3.1,7.22l7.4-7.4Z" style="fill:#999"/><line x1="10" y1="173.5" x2="10" y2="154.5" style="fill:none;stroke:#000;stroke-miterlimit:10"/><path d="M76,27.46A36.65,36.65,0,0,0,70.2,27h0a37,37,0,0,0-6.18.53A36.24,36.24,0,0,0,34,63.22V84h72.45V63.22A36.23,36.23,0,0,0,76,27.46Z" style="fill:#999"/><circle cx="69.75" cy="148.25" r="25.75" style="fill:#ccc"/><circle cx="69.75" cy="148.25" r="13.19" style="fill:gray"/><polygon points="106.42 84 33.97 84 29.5 84 29.5 101.97 37.54 101.97 102.85 101.97 110 101.97 110 84 106.42 84" style="fill:#666"/><circle cx="54.5" cy="65" r="10.5" style="fill:#ff0;stroke:#000;stroke-miterlimit:10;stroke-width:2px"/><circle cx="83.5" cy="65" r="10.5" style="fill:#ff0;stroke:#000;stroke-miterlimit:10;stroke-width:2px"/><line x1="44" y1="65.5" x2="65" y2="65.5" style="fill:none;stroke:#000;stroke-miterlimit:10;stroke-width:2px"/><line x1="93.5" y1="65" x2="72.5" y2="65" style="fill:none;stroke:#000;stroke-miterlimit:10;stroke-width:2px"/><line x1="83.5" y1="54" x2="83.5" y2="75" style="fill:none;stroke:#000;stroke-miterlimit:10;stroke-width:2px"/><path d="M70.2,27a36.65,36.65,0,0,1,5.78.46c0-.15,0-.3,0-.46a6,6,0,1,0-12,0c0,.18,0,.36,0,.53A37,37,0,0,1,70.2,27Z" style="fill:#ccc"/><circle cx="70" cy="6.5" r="6" style="fill:#666;stroke:#000;stroke-miterlimit:10"/><line x1="70" y1="20.5" x2="70" y2="12.5" style="fill:none;stroke:#000;stroke-miterlimit:10"/><path d="M122.11,105.5a14.51,14.51,0,0,1,14.39,14.63h0V154h-15l.32-48.5Z" style="fill:#666"/><path d="M121.61,190.22a10,10,0,1,1,14.29.5l-7.4-7.4Z" style="fill:#999"/><line x1="129" y1="173.5" x2="129" y2="154.5" style="fill:none;stroke:#000;stroke-miterlimit:10"/></svg>