<svg xmlns="http://www.w3.org/2000/svg" viewBox="0 0 133.64 310.4"><title>avatar-1</title><path d="M117.94,141.17c-.7,1.76,1.37,2.72,1.19,5.71-.14,2.42-1.59,2.7-1.63,5.6a12.51,12.51,0,0,0,.57,3.56c.08.29.81,2.94,1.31,2.88.34,0,.18-1.42.84-3.51.38-1.22.86-2.74,1.52-2.77s1.3,2,3.29,6.49c1.64,3.75,2.08,4.21,2.66,4.35,1.75.44,4.28-2.1,5.14-4.75.63-1.95.23-3.58-.46-6.39-.57-2.3-1.06-4.3-2.76-5.91-1.37-1.3-1.93-.76-3.3-2.11-2.32-2.27-1.58-4.32-3.35-5.08A4.24,4.24,0,0,0,117.94,141.17Z" style="fill:#edca8c;stroke:#d3a559;stroke-miterlimit:10"/><path d="M129.42,151.5a11.29,11.29,0,0,1,2,6,11.12,11.12,0,0,1-1,5" style="fill:#edca8c;stroke:#d3a559;stroke-miterlimit:10"/><path d="M126.42,152.5a15.05,15.05,0,0,1,2,11" style="fill:#edca8c;stroke:#d3a559;stroke-miterlimit:10"/><path d="M15.71,140.17c.7,1.76-1.38,2.72-1.2,5.71.14,2.42,1.59,2.7,1.63,5.6a12.17,12.17,0,0,1-.57,3.56c-.08.29-.81,2.94-1.3,2.88s-.18-1.42-.85-3.51c-.38-1.22-.86-2.74-1.52-2.77s-1.3,2-3.29,6.49C7,161.88,6.53,162.34,6,162.48c-1.75.44-4.28-2.1-5.14-4.75-.63-1.95-.23-3.58.47-6.39C1.84,149,2.33,147,4,145.43c1.37-1.3,1.93-.76,3.31-2.11,2.31-2.27,1.58-4.32,3.34-5.08A4.26,4.26,0,0,1,15.71,140.17Z" style="fill:#edca8c;stroke:#d3a559;stroke-miterlimit:10"/><path d="M4.22,150.5a11.29,11.29,0,0,0-2,6,11.12,11.12,0,0,0,1,5" style="fill:#edca8c;stroke:#d3a559;stroke-miterlimit:10"/><path d="M7.22,151.5a15.14,15.14,0,0,0-2,5,14.94,14.94,0,0,0,0,6" style="fill:#edca8c;stroke:#d3a559;stroke-miterlimit:10"/><path d="M34.22,99.5c-.37-.08-1.15,2.74-4,11-4.83,14-6.3,16.64-8,19-2.09,2.9-7,9.74-12,9-1.85-.27-3-1.49-5.9-2.81-.87,3.74-.8,5.59.25,6.64s1.87.21,5.93,1.3c4.86,1.32,5.33,2.91,7.11,2.62,3.29-.54,4.4-6.41,8.29-17,2.52-6.85,5.38-14.64,6.7-15C34.46,102.6,34.59,99.58,34.22,99.5Z" style="fill:#b23434"/><path d="M125.31,122.72c-3.9-12.39-5.1-15.78-6.36-18.25A79.94,79.94,0,0,1,120.72,123c-.2,7.31-1.47,11.63-3,15a33.4,33.4,0,0,1-4.09,6.76,3.49,3.49,0,0,0,2.2,1.49c1.78.29,2.25-1.3,7.11-2.62,4-1.09,4.91-.3,5.92-1.3C130.75,140.46,129.5,136,125.31,122.72Z" style="fill:#d6403c"/><path d="M120.72,123A79.94,79.94,0,0,0,119,104.47c-.24-.47-.48-.9-.75-1.36a57.91,57.91,0,0,0-3.36-5.28c-3.94,7.19-7.92,9.55-11.12,10.17-2.94.57-4.76-.4-7,1-3.41,2.12-3.55,7.07-4,15-1.2,21.2-2.44,25.32-3,27-1.46,4.4-3.25,9.8-8,14-7.42,6.56-17.34,6-37,5-5.22-.27-12-.93-16.61-1.41-.23,1.92-.44,3.6-.61,5-.09.74-.17,1.43-.25,2,2.06.38,4.77.87,7.47,1.33,8.55,1.45,14.31,2.42,21,3a149.36,149.36,0,0,0,25,0,114.48,114.48,0,0,0,14-2c3.24-.68,6-1.41,8-2l-3-23c-1.5-31.6-.4-38.56,1-38.73s4,7.35,6.86,15c2.88,7.83,4.24,13.08,6.09,15.5a33.4,33.4,0,0,0,4.09-6.76C119.25,134.63,120.52,130.31,120.72,123Z" style="fill:#b23434"/><path d="M81.72,165c4.75-4.2,6.54-9.6,8-14,.56-1.68,1.8-5.8,3-27,.45-7.93.59-12.88,4-15,2.24-1.4,4.06-.43,7-1,3.2-.62,7.18-3,11.12-10.17a33.52,33.52,0,0,0-6.12-6.48,34.58,34.58,0,0,0-13-6.54c-3.57-.91-10.92-2.1-12.61-2.38l-1.24-.2a27.72,27.72,0,0,0-5-.18l-19,.08a27.88,27.88,0,0,0-6.29.1l-1.24.2c-1.7.28-9,1.47-12.61,2.38a34.59,34.59,0,0,0-13,6.54,39.41,39.41,0,0,0-9.47,11.76C13.58,106,12.77,108,8.13,122.72c-1.85,5.87-3.12,10-3.81,13,2.89,1.32,4,2.54,5.9,2.81,5,.74,9.91-6.1,12-9,1.7-2.36,3.17-5,8-19,2.85-8.26,3.63-11.08,4-11s.24,3.1-1.62,14.79a.41.41,0,0,1,.15,0c1.84.46-.43,19.38-2.51,36.61-.88,7.29-1.59,13.17-2.13,17.71,4.65.48,11.39,1.14,16.61,1.41C64.38,171,74.3,171.56,81.72,165Z" style="fill:#d6403c"/><path d="M47,80A33.56,33.56,0,0,0,58.2,84.48c7.36,1.31,13.68-1.83,16-3,8.41-4.19,12.29-11.09,14.46-15.06,3.64-6.7,3.11-9.86,6.42-24.1.59-2.52,1.12-4.8,1.61-6.87V30.26A50.55,50.55,0,0,0,88.8,24.8a53.17,53.17,0,0,0-24-6.59,52.62,52.62,0,0,0-24.39,5.72,49.43,49.43,0,0,0-7.58,4.82c.1,5.15.05,9.31,0,12-.16,8.21-.56,11.74,0,18.08.37,4.17.55,6.26,1.44,8.95a29.12,29.12,0,0,0,3.06,6.45c1.06.49,2.63,1.39,4.85,2.67C44.54,78.33,45.92,79.3,47,80Z" style="fill:#edca8c"/><path d="M64.76,89c3.16.06,13.69.09,22.38-7.53,10-8.78,9.68-20.76,9.6-22.59V35.44c-.49,2.07-1,4.35-1.61,6.87-3.31,14.24-2.78,17.4-6.42,24.1-2.17,4-6,10.87-14.46,15.06-2.37,1.18-8.69,4.32-16,3A33.56,33.56,0,0,1,47,80c-1-.66-2.41-1.63-4.81-3-2.22-1.28-3.79-2.18-4.85-2.67a30.78,30.78,0,0,0,4.86,5.89C50.51,88,60.75,88.92,64.76,89Z" style="fill:#d8b782"/><path d="M34.11,43.81c-.26-.23-2.42-2.11-4.82-1.5a5.36,5.36,0,0,0-3.21,3,7.92,7.92,0,0,0,0,7.53,5.36,5.36,0,0,0,3.21,3c2.4.61,4.56-1.27,4.82-1.5A7.5,7.5,0,0,0,34.11,43.81Z" style="fill:#edca8c"/><path d="M94.74,43.81c.25-.23,2.41-2.11,4.81-1.5a5.35,5.35,0,0,1,3.22,3,7.92,7.92,0,0,1,0,7.53,5.35,5.35,0,0,1-3.22,3c-2.4.61-4.56-1.27-4.81-1.5A7.5,7.5,0,0,1,94.74,43.81Z" style="fill:#edca8c"/><path d="M34.11,55.86c-.92,0-1.57-5.67-1.61-6-.3-2.72-.08-3.7,0-9,0-2.51,0-5,0-7.53,0-3.38,0-6.41,0-7.53,0-10.07-.2-9.75,0-10.54C34.08,9,40.57,5.5,42.14,4.66,45,3.13,47,2.81,59.8,1.64,69.82.73,74.91.27,79.07.14S98-.47,98.34,1.64c.25,1.51-7.53,2.44-8,6-.4,2.91,4.51,3.77,6.43,9,.62,1.72.13,1.73,0,10.54-.07,4.05,0,7.86,0,9,0,2.71.1,5.27,0,9,0,.94-.09,2.61-.33,4.78-.28,2.39-.66,5.74-1.28,5.76s-1.34-3.43-1.61-6a39.05,39.05,0,0,1,0-6c.19-4.92.36-7.39,0-9-.45-2.1-1.5-6.92-4.81-9-2.18-1.39-4,.11-11,1.49a73.54,73.54,0,0,1-13.13,1.52A65.84,65.84,0,0,1,50.9,27.44c-6-1.36-8.15-2.94-10.37-1.7-1.49.84-2.06,3.07-3.21,7.53a39.35,39.35,0,0,0-1.61,10.54,44.91,44.91,0,0,1,0,6C35.49,52.08,34.86,55.86,34.11,55.86Z" style="fill:#212121"/><path d="M61.39,4.38c.09-.82,4.23-.11,12.32-1.26,1.29-.18,5.41-.79,11-1.28,0,0,4-.36,4.09.08s-3.58.25-5.52,2.9c-.51.7-.78,1.4-1.4,1.48-1.08.13-1.74-1.78-2.7-1.56-.71.16-.67,1.29-1.4,1.48-.93.24-1.42-1.51-2.69-1.56s-1.49,1.43-2.76,1.45-1.35-1.27-2.7-1.56C68,4.22,67.42,5.72,65.45,6S61.33,5,61.39,4.38Z" style="fill:#424241"/><path d="M98.92,295.5c.27-.68-.22-1.19,0-3,.19-1.65.68-1.93.5-2.5-.71-2.19-9.34-2.14-10,0-.21.68.54,1.1.5,2.5,0,1.71-1.2,2.23-1,3C89.42,297.49,97.94,297.92,98.92,295.5Z" style="fill:#edca8c;stroke:#d3a559;stroke-miterlimit:10"/><path d="M85.42,296a8.19,8.19,0,0,1,1.77-1.46,8.73,8.73,0,0,0,1.73,1c3.2,1.35,6.2.5,8,0a10.27,10.27,0,0,0,4-2l.2-.19c1.45.21,2.89.45,4.3.69a47.89,47.89,0,0,1,10,3c5.74,2.18,7.16,3.55,8,5,.29.5,2,3.13,1,5s-3.86,1.92-6,2c-11.93.42-17.9.63-23,0-3.1-.38-7.35-1-12.4-2a10.76,10.76,0,0,1-.6-3A12.37,12.37,0,0,1,85.42,296Z" style="fill:#7a7a7a"/><path d="M113.42,305a8.62,8.62,0,0,0,5-1c.83-.47,2-1.11,2-2,0-1.13-1.81-2-4-3a36.86,36.86,0,0,0-6-2c-4.85-1.34-5.44-1.26-6-1-2,.91-2.62,3.48-3,5-.29,1.16-.55,2.2,0,3,.66,1,2.1,1,4,1C108.79,305,111.51,305,113.42,305Z" style="fill:#adadad"/><path d="M96.58,292.83l-6.07.38A22.22,22.22,0,0,1,96.58,292.83Z" style="fill:#7a7a7a"/><path d="M96.92,295.5c-1.8.5-4.8,1.35-8,0a8.73,8.73,0,0,1-1.73-1,10.8,10.8,0,0,1,3.32-1.33l6.07-.38c1.49.09,3,.26,4.54.48l-.2.19A10.27,10.27,0,0,1,96.92,295.5Z" style="fill:#adadad"/><path d="M30.22,296.5c-.28-.68.21-1.19,0-3-.2-1.65-.68-1.93-.5-2.5.7-2.19,9.34-2.14,10,0,.21.68-.54,1.1-.5,2.5.05,1.71,1.2,2.23,1,3C39.71,298.49,31.19,298.92,30.22,296.5Z" style="fill:#edca8c;stroke:#d3a559;stroke-miterlimit:10"/><path d="M43.72,297A8.19,8.19,0,0,0,42,295.54a9.34,9.34,0,0,1-1.73,1c-3.2,1.35-6.2.5-8,0a10.18,10.18,0,0,1-4-2c-.08-.07-.13-.13-.21-.19-1.44.21-2.89.45-4.29.69a47.71,47.71,0,0,0-10,3c-5.74,2.18-7.17,3.55-8,5-.29.5-2,3.13-1,5s3.86,1.92,6,2c11.93.42,17.89.63,23,0,3.1-.38,7.35-1,12.4-2a10.76,10.76,0,0,0,.6-3A12.48,12.48,0,0,0,43.72,297Z" style="fill:#7a7a7a"/><path d="M15.72,306a8.61,8.61,0,0,1-5-1c-.83-.47-2-1.11-2-2,0-1.13,1.8-2,4-3a36.86,36.86,0,0,1,6-2c4.85-1.34,5.43-1.26,6-1,2,.91,2.62,3.48,3,5,.29,1.16.55,2.2,0,3-.66,1-2.1,1-4,1C20.35,306,17.63,306,15.72,306Z" style="fill:#adadad"/><path d="M32.22,296.5c1.8.5,4.8,1.35,8,0a9.34,9.34,0,0,0,1.73-1,11,11,0,0,0-3.33-1.33l-6.06-.38c-1.49.09-3,.26-4.55.48.08.06.13.12.21.19A10.18,10.18,0,0,0,32.22,296.5Z" style="fill:#adadad"/><path d="M32.56,293.83l6.06.38A22.14,22.14,0,0,0,32.56,293.83Z" style="fill:#7a7a7a"/><path d="M95.22,265.5c-.53-6.49-1.35-7.73-2-13-.62-5-.09-11.08,1-23,2-21.63,2-21.51,2-23-.06-12.76-2.43-15.24-1-23a34.69,34.69,0,0,1,2-6.89L95,177c-10.61,1.79-15.91,2.69-21,3-2.69.16-5.22.18-7.63.11V180l-1.52.07L63.34,180v.13c-2.41.07-4.94,0-7.63-.11-5.08-.31-10.38-1.21-21-3-2.7-.46-5.41-.95-7.47-1.33-.34,2.81-.52,4.25-.53,4.33a45.68,45.68,0,0,0-1,9c0,3.77.49,5,1,12,.08,1.16.19,3.32.4,7.58.33,6.56.39,8.85.6,12.41.48,8.31.72,12.47,1.05,17.24.44,6.48.69,9.13.95,14.75a101.54,101.54,0,0,1,0,14,67.41,67.41,0,0,1-1,8c-.65,3.36-1.23,6.74-1.84,10.11,2.71.55,4.63.86,6.84-.08,3.05-1.31,4.53-4.11,6-7,2.9-5.7,2.85-10.19,3.5-17.5.84-9.45,1.26-14.18,3-20s4.08-10.25,8.5-18.5c.18-.34,2.33-4.33,5.8-9.47,1.3-4.62,2.3-7.57,3.2-8.83V204a2,2,0,0,1,1.13-.94A2,2,0,0,1,66,204v-.26c1.46,2,3.16,8.47,6,19.28.44,1.67.52,2,3,12,2.38,9.58,3.58,14.4,4,16,3.58,13.66,3.78,11.77,5,18,1.6,8.2,2.57,13.17,2.4,16.54,3.35-.72,5.39-1.47,6.82-3C96.27,279.22,95.94,274.34,95.22,265.5Z" style="fill:#424241"/><rect x="63.72" y="183" width="3" height="17" style="fill:#7f7f7f"/><rect x="65.72" y="183" width="1" height="17" style="fill:#636362"/><path d="M46.22,240.5c-1.74,5.82-2.16,10.55-3,20-.65,7.31-.6,11.8-3.5,17.5-1.47,2.89-2.95,5.69-6,7-2.21.94-4.13.63-6.84.08-.06.29-.11.59-.16.88-.39,2.13-.57,3.21,0,4,1,1.41,3,.74,8,1,5.52.29,8,1.37,9,0,.7-.95.19-2.41,0-3-1.06-3.33,0-8.55,2-19,1.22-6.23,1.41-4.34,5-18,.42-1.59,1.62-6.41,4-16,2.48-10,2.56-10.33,3-12,1.09-4.12,2-7.6,2.81-10.45-3.47,5.14-5.62,9.13-5.8,9.47C50.3,230.25,48,234.55,46.22,240.5Z" style="fill:#565656"/><path d="M100.94,238.22c.33-4.77.57-8.93,1-17.24.21-3.56.27-5.85.59-12.41.22-4.26.32-6.42.41-7.58.51-7,1-8.23,1-12a45.68,45.68,0,0,0-1-9c0-.08-.19-1.52-.53-4.33l-5.2.94a34.69,34.69,0,0,0-2,6.89c-1.43,7.76.94,10.24,1,23,0,1.49,0,1.37-2,23-1.09,11.92-1.62,18-1,23,.65,5.27,1.47,6.51,2,13,.72,8.84,1,13.72-2,17-1.43,1.54-3.47,2.29-6.82,3A10.11,10.11,0,0,1,86,288c-.19.59-.7,2.05,0,3,1,1.37,3.47.29,9,0,5-.26,7,.41,8-1,.57-.79.39-1.87,0-4-.67-3.66-1.29-7.34-2-11a67.41,67.41,0,0,1-1-8,101.54,101.54,0,0,1,0-14C100.25,247.35,100.5,244.7,100.94,238.22Z" style="fill:#565656"/></svg>