<svg xmlns="http://www.w3.org/2000/svg" viewBox="0 0 129.72 314.93"><title>avatar-2_1</title><path d="M37.75,87.94a27.9,27.9,0,0,0-13,6.54c-3,2.74-4.69,6.38-8,13.65a84.82,84.82,0,0,0-4,11,70.2,70.2,0,0,0-2.5,11.5,65.13,65.13,0,0,0-.5,9.5c-.53,4.45-1.53,5.88-2.38,6.32a17.53,17.53,0,0,0-2.43,1.44,6.92,6.92,0,0,0-.88.67c-1.7,1.61-2.19,3.61-2.75,5.91-.7,2.81-1.1,4.44-.47,6.39.86,2.65,3.39,5.19,5.14,4.75.58-.14,1-.6,2.66-4.35,2-4.52,2.52-6.53,3.29-6.49s1.14,1.55,1.52,2.77c.67,2.1.5,3.46.85,3.51s1.22-2.59,1.3-2.88a12.17,12.17,0,0,0,.57-3.56,5.89,5.89,0,0,0-.25-1.74A38,38,0,0,0,14.51,149c-.55-1.32-.49-2.9.71-6.38,1.93-5.59,4.8-10.24,8-16,3-5.32,3.82-7.33,6.5-10.5,1.7-2,4.56-5.64,6-5s.79,4.79.5,6.5a17.81,17.81,0,0,0,3-3c2.24-2.88,3.18-6,4-12a109.75,109.75,0,0,0,1-15A25.14,25.14,0,0,0,37.75,87.94Z" style="fill:#f4d4bd;stroke:#c6a083;stroke-miterlimit:10"/><path d="M4.22,153.63a11.29,11.29,0,0,0-2,6,11.12,11.12,0,0,0,1,5" style="fill:#efc39e;stroke:#c6a083;stroke-miterlimit:10"/><path d="M7.22,154.63a15.14,15.14,0,0,0-2,5,14.94,14.94,0,0,0,0,6" style="fill:#efc39e;stroke:#c6a083;stroke-miterlimit:10"/><path d="M32.56,297l6.06.38A22.54,22.54,0,0,0,32.56,297Z" style="fill:#7a7a7a"/><path d="M92,87.94a27.84,27.84,0,0,1,13,6.54c3,2.74,4.7,6.38,8,13.65a84.82,84.82,0,0,1,4,11,70.2,70.2,0,0,1,2.5,11.5,65.13,65.13,0,0,1,.5,9.5c.53,4.45,1.53,5.88,2.38,6.32a17.53,17.53,0,0,1,2.43,1.44,6.92,6.92,0,0,1,.88.67c1.69,1.61,2.19,3.61,2.75,5.91.69,2.81,1.09,4.44.47,6.39-.86,2.65-3.39,5.19-5.14,4.75-.58-.14-1-.6-2.66-4.35-2-4.52-2.52-6.53-3.29-6.49s-1.14,1.55-1.52,2.77c-.67,2.1-.5,3.46-.85,3.51s-1.22-2.59-1.3-2.88a12.17,12.17,0,0,1-.57-3.56,5.89,5.89,0,0,1,.25-1.74,38,38,0,0,1,1.38-3.86c.55-1.32.49-2.9-.71-6.38-1.93-5.59-4.8-10.24-8-16-3-5.32-3.82-7.33-6.5-10.5-2-2.33-4.5-5.58-6-5-2,.76-.93,7.56-.78,8.5a18.77,18.77,0,0,1-5-4c-4.09-4.62-4.67-10-5-13a30.28,30.28,0,0,1,2.28-15A25.14,25.14,0,0,1,92,87.94Z" style="fill:#f4d4bd;stroke:#c6a083;stroke-miterlimit:10"/><path d="M33.72,223.13c-1.31,2-.49,2.77,0,19,.21,7.08.17,10.61,0,14,0,.95-.26,5.1-1,11-1,7.8-1.25,21.54-4,28a7.92,7.92,0,0,1-2.5,3.5c-1,.77-2.35,1.18-5,2a16.4,16.4,0,0,0-3,1c-.3.16-3.12,1.69-3,3,.16,1.67,4.72,3.69,9,3,3.86-.62,3.83-2.85,10-5,2.1-.73,3.19-.85,4-2,1.28-1.82.25-3.93,0-7-.2-2.45.42-5,2-10,2.06-6.48,4-11.27,4.5-12.5,1.25-3.1,3.66-10.9,8.5-26.5.09-.28,1.22-4.35,3.5-12.5,1.8-6.46,2.7-9.73,2-11C55.63,215.54,38.48,215.68,33.72,223.13Z" style="fill:#f4d4bd;stroke:#c6a083;stroke-miterlimit:10"/><path d="M40.72,302.13a7.38,7.38,0,0,0-.59-4.61,2.7,2.7,0,0,0-1.41-1.39c-1.13-.35-2.29.61-4,2-3.11,2.53-4.67,3.79-5,4-1.6,1-5,3.11-7.46,2-.44-.19-2.26-1.11-3.47-1.63a5.21,5.21,0,0,0-1.42-.37c-1.54-.19-1.17.4-6.84,2A14.5,14.5,0,0,0,4.83,307l-.16.16c-.62.65-2.34,2.43-1.95,4,.51,2.06,4.36,2.65,6.84,3,6,.85,14.44,2.15,20.51-3,4-3.4,5.59-8.43,6.65-8,.5.21.67,1.81,1,5,.14,1.35.21,2.64,1,3a1.24,1.24,0,0,0,1,0C41,310.57,40.25,307.94,40.72,302.13Z" style="fill:#d353d0"/><path d="M9,311.13c-1.89-.89-2.31-1.51-2.3-2,0-1.05,2-1.95,4.39-3a17,17,0,0,1,2.07-.77s1-.3,2-.47c2.15-.37,4.63.87,6.56,1.24,4.68.89,8.21-3,9-2,.58.74-1.16,3-2,4a14.89,14.89,0,0,1-6.09,4A17.27,17.27,0,0,1,9,311.13Z" style="fill:#a843a8"/><path d="M88.9,223.13c1.31,2,.49,2.77,0,19-.21,7.08-.17,10.61,0,14,0,.95.26,5.1,1,11,1,7.8,1.26,21.54,4,28a7.92,7.92,0,0,0,2.5,3.5c1,.77,2.35,1.18,5,2a16.4,16.4,0,0,1,3,1c.3.16,3.12,1.69,3,3-.16,1.67-4.72,3.69-9,3-3.86-.62-3.83-2.85-10-5-2.1-.73-3.19-.85-4-2-1.28-1.82-.25-3.93,0-7,.2-2.45-.42-5-2-10-2.06-6.48-4-11.27-4.5-12.5-1.25-3.1-3.66-10.9-8.5-26.5-.09-.28-1.22-4.35-3.5-12.5-1.8-6.46-2.7-9.73-2-11C67,215.54,84.14,215.68,88.9,223.13Z" style="fill:#f4d4bd;stroke:#c6a083;stroke-miterlimit:10"/><path d="M81.9,302.13a7.38,7.38,0,0,1,.59-4.61,2.7,2.7,0,0,1,1.41-1.39c1.13-.35,2.29.61,4,2,3.11,2.53,4.67,3.79,5,4,1.6,1,5,3.11,7.46,2,.44-.19,2.26-1.11,3.47-1.63a5.21,5.21,0,0,1,1.42-.37c1.54-.19,1.17.4,6.84,2a14.5,14.5,0,0,1,5.7,2.84l.16.16c.62.65,2.34,2.43,2,4-.51,2.06-4.36,2.65-6.84,3-6,.85-14.44,2.15-20.51-3-4-3.4-5.59-8.43-6.65-8-.5.21-.67,1.81-1,5-.14,1.35-.21,2.64-1,3a1.24,1.24,0,0,1-1,0C81.59,310.57,82.37,307.94,81.9,302.13Z" style="fill:#d353d0"/><path d="M113.6,311.13c1.89-.89,2.31-1.51,2.3-2,0-1.05-2-1.95-4.39-3a17,17,0,0,0-2.07-.77s-1-.3-2-.47c-2.15-.37-4.63.87-6.56,1.24-4.68.89-8.21-3-9-2-.58.74,1.17,3,2,4a14.89,14.89,0,0,0,6.09,4A17.27,17.27,0,0,0,113.6,311.13Z" style="fill:#a843a8"/><path d="M76.72,177.13c-7.38.17-12.92-.89-24-3-3.31-.63-8.5-1.72-12-6a13.15,13.15,0,0,1-3-7c-.09-.88-.51-5,2-8,1.53-1.83,3.4-2.38,5-3,8.69-3.36,14.26-10.65,14-11-.13-.17-2.19,2.08-6,3-2.06.5-4,.33-8,0-3.13-.26-4.71-.4-6-1a11.1,11.1,0,0,1-5-5,14.2,14.2,0,0,1,2,4c1,3.35.85,6.54-1,12-.9,2.67-2.26,6.71-4,12a66.8,66.8,0,0,0-3.22,12.63c-.12.86-.2,1.57-.25,2,2.06.38,4.77.87,7.47,1.33,10,1.69,15,2.56,21,3a116.67,116.67,0,0,0,17.07,0c6-.44,11-1.31,21-3,1.91-.32,3.83-.66,5.52-1A105.82,105.82,0,0,0,76.72,177.13Z" style="fill:#d353d0"/><path d="M91.72,140.13c-2.41,1.62-4.93,1.79-8,2a33.82,33.82,0,0,1-10-1c-2.56-.57-4-1.13-4-1-.11.3,7.27,3.86,16,7,3.8,1.37,5,1.63,7,3l.48.34c-1.56-4.81-1.18-8.11-.41-10.34.17-.48.35-.91.57-1.4A9.42,9.42,0,0,1,91.72,140.13Z" style="fill:#d353d0"/><path d="M111.72,214.08c-4.13-9-6.16-16.87-8-24-.4-1.54-.75-3-1.06-4.35a71.94,71.94,0,0,1-10.94,21.4c-4.57,6.09-8.36,11.15-15,13-6.06,1.69-7-1.38-16,0-8,1.23-9.29,4-17,4a59.6,59.6,0,0,1-10-1c-5.82-1.09-6.59-2.16-10-2-4.23.2-5.14,2-10,3-.65.14-1.4.27-2.24.37-.91,1.91-1.31,3.16-.76,3.63s1.26-.24,4-1a31.45,31.45,0,0,1,10-1,39.85,39.85,0,0,1,7,1c7.46,1.48,8.27,2.61,12,3,5.34.56,5.33-1.59,12-2,8.49-.52,9.47,2.9,17,2,6.22-.74,6.4-3.17,12-3,5.11.16,5.77,2.21,11,2,3.23-.13,2.69-.9,10-2,4.81-.76,6.86-.7,9,0,1.86.6,2.57,1.33,3,1C118.83,227.22,115.16,221.58,111.72,214.08Z" style="fill:#3d3d3d"/><path d="M23.72,221.13c3.41-.16,4.18.91,10,2a59.6,59.6,0,0,0,10,1c7.71,0,9-2.77,17-4,9-1.38,9.94,1.69,16,0,6.64-1.85,10.43-6.91,15-13a71.94,71.94,0,0,0,10.94-21.4c-.64-2.76-1.12-5.14-1.47-7-2.06.39-4.77.88-7.47,1.33-15.36,2.6-18.65,2.91-21,3-1.06,0-3.76.05-9.15.06-4.72,0-7.08,0-7.87,0-3.4-.09-6.27-.51-21-3-2.7-.46-5.41-.95-7.47-1.33-.52,2.75-1.33,6.67-2.53,11.33-1.84,7.14-3.87,15-8,24-2,4.36-4,7.91-5.24,10.37.84-.1,1.59-.23,2.24-.37C18.58,223.08,19.49,221.33,23.72,221.13Z" style="fill:#565656"/><rect x="63.72" y="186.13" width="3" height="17" style="fill:#7f7f7f"/><rect x="65.72" y="186.13" width="1" height="17" style="fill:#636362"/><path d="M47.73,99.75c.31,1.68,1.12,5.94,4.49,8.88s7.81,3,11,3c2.85,0,10.17,0,14-5,2-2.58,2.5-5.81,3-9,.59-3.76,0-5,1-8a18.74,18.74,0,0,1,1.46-3.31c-2.05-.36-3.8-.64-4.53-.76l-1.24-.2a28.48,28.48,0,0,0-6.29-.1l-6,0h0a56,56,0,0,1-6.73,0,30.06,30.06,0,0,0-6.29.1l-1.24.2-4.26.71a22.45,22.45,0,0,1,1.12,3.36C48.3,94,46.91,95.43,47.73,99.75Z" style="fill:#f4d4bd;stroke:#c6a083;stroke-miterlimit:10"/><path d="M90.72,114.13a31.39,31.39,0,0,1-5.5-12.5,37.06,37.06,0,0,1,.34-14.79l-2.88-.52a18.74,18.74,0,0,0-1.46,3.31c-1,3-.41,4.24-1,8-.5,3.19-1,6.42-3,9-3.83,5-11.15,5-14,5-3.19,0-7.52,0-11-3s-4.18-7.2-4.49-8.88c-.82-4.32.57-5.71-.51-10.12a22.45,22.45,0,0,0-1.12-3.36l-3.25.59a93.83,93.83,0,0,1-1.63,14.77c-1.26,6.29-2.72,9.68-4.5,12.5a29.15,29.15,0,0,1-2.16,3,41.46,41.46,0,0,0-1.84,10,25.16,25.16,0,0,0,1,8c0,.12.33,1,.77,2,.21.51.39.93.56,1.31a11.85,11.85,0,0,0,1.67,1.65c1.64,1.26,3.27,1.55,6,2,3.14.52,6.32,1,10,0s5.85-3.2,6-3c.26.35-5.31,7.64-14,11-1.6.62-3.47,1.17-5,3-2.51,3-2.09,7.12-2,8a13.15,13.15,0,0,0,3,7c3.5,4.28,8.69,5.37,12,6,11.08,2.11,16.62,3.17,24,3a105.82,105.82,0,0,1,22.59,2l2-.36c-.05-.47-.13-1.18-.25-2a66.8,66.8,0,0,0-3.22-12.63c-1.73-5.29-3.09-9.33-4-12-.22-.58-.42-1.13-.59-1.66l-.48-.34c-2-1.37-3.2-1.63-7-3-8.73-3.14-16.11-6.7-16-7,0-.13,1.44.43,4,1a33.82,33.82,0,0,0,10,1c3.07-.21,5.59-.38,8-2a9.42,9.42,0,0,0,1.64-1.4c.36-.83.81-1.83,1.43-3.6a39.88,39.88,0,0,0,2-7A17.18,17.18,0,0,0,95.28,119,29.82,29.82,0,0,1,90.72,114.13Z" style="fill:#f769e3"/><path d="M93.72,74.13c1.35-2.22,3-6,3-32.34v-8.4a50.55,50.55,0,0,0-7.94-5.46,53.31,53.31,0,0,0-24-6.59,52.62,52.62,0,0,0-24.39,5.72,49.43,49.43,0,0,0-7.58,4.82c0,2.93-.07,7.08,0,12.05.22,16.63.47,25.05,3.93,30.2,1.75,2.61,5.84,5.41,14,11,9.81,6.72,12.76,7,14,7s4.66-.06,15-7C88,79.58,92.1,76.8,93.72,74.13Z" style="fill:#f4d4bd;stroke:#c6a083;stroke-miterlimit:10"/><path d="M104.72,24.13c-2.7-9.14-9.82-14.39-12-16a38.91,38.91,0,0,0-13-6,53.87,53.87,0,0,0-30,0c-3.86,1.15-8.3,2.47-13,6a35,35,0,0,0-12,17c-1.45,4.28-1.69,7.64-2,12-.54,7.54.44,10,1,19,1,16.53-1.33,23.11,3,26,2.31,1.55,4.23.49,8,3,4.26,2.83,4.92,6.25,6,6,2.31-.53,2-17,0-34-.62-5.16-2.41-18.74,2-21,.54-.28,1.93-.77,5.42-2.36,1.76-.81,2.19-1,3.58-1.64,3.6-1.56,3.48-1.21,5-2a19.69,19.69,0,0,0,6-5,20.29,20.29,0,0,0,2-3,23.77,23.77,0,0,0,2,3,18.44,18.44,0,0,0,4,4c1.74,1.21,2.1.85,7,3,1.4.62,1.22.58,3.58,1.64,3.39,1.52,5,2.14,5.42,2.36,4.73,2.3,3.32,17.46,3,21-.56,6.19-3.1,34.26,0,35,1,.24,1.6-2.59,6-6,2.89-2.24,4.08-2.13,6-4s3-4.11,4-8c1.28-5.07,1.44-9.55,1-20-.27-6.42-.39-6-1-17S105.23,25.85,104.72,24.13Z" style="fill:#282828"/><path d="M121.92,154.63a15.14,15.14,0,0,1,2,5,15.32,15.32,0,0,1,0,6" style="fill:#efc39e;stroke:#c6a083;stroke-miterlimit:10"/><path d="M125.21,153.63a11.29,11.29,0,0,1,2,6,11.12,11.12,0,0,1-1,5" style="fill:#efc39e;stroke:#c6a083;stroke-miterlimit:10"/></svg>