<svg xmlns="http://www.w3.org/2000/svg" viewBox="0 0 129.72 314.93"><title>avatar-4</title><path d="M37.75,87.94a27.9,27.9,0,0,0-13,6.54c-3,2.74-4.69,6.38-8,13.65a84.82,84.82,0,0,0-4,11,70.2,70.2,0,0,0-2.5,11.5,65.13,65.13,0,0,0-.5,9.5c-.53,4.45-1.53,5.88-2.38,6.32a17.53,17.53,0,0,0-2.43,1.44,6.92,6.92,0,0,0-.88.67c-1.7,1.61-2.19,3.61-2.75,5.91-.7,2.81-1.1,4.44-.47,6.39.86,2.65,3.39,5.19,5.14,4.75.58-.14,1-.6,2.66-4.35,2-4.52,2.52-6.53,3.29-6.49s1.14,1.55,1.52,2.77c.67,2.1.5,3.46.85,3.51s1.22-2.59,1.3-2.88a12.17,12.17,0,0,0,.57-3.56,5.89,5.89,0,0,0-.25-1.74A38,38,0,0,0,14.51,149c-.55-1.32-.49-2.9.71-6.38,1.93-5.59,4.8-10.24,8-16,3-5.32,3.82-7.33,6.5-10.5,1.7-2,4.56-5.64,6-5s.79,4.79.5,6.5a17.81,17.81,0,0,0,3-3c2.24-2.88,3.18-6,4-12a109.75,109.75,0,0,0,1-15A25.14,25.14,0,0,0,37.75,87.94Z" style="fill:#f4d4bd;stroke:#c6a083;stroke-miterlimit:10"/><path d="M4.22,153.63a11.29,11.29,0,0,0-2,6,11.12,11.12,0,0,0,1,5" style="fill:#efc39e;stroke:#c6a083;stroke-miterlimit:10"/><path d="M7.22,154.63a15.14,15.14,0,0,0-2,5,14.94,14.94,0,0,0,0,6" style="fill:#efc39e;stroke:#c6a083;stroke-miterlimit:10"/><path d="M32.56,297l6.06.38A22.54,22.54,0,0,0,32.56,297Z" style="fill:#7a7a7a"/><path d="M92,87.94a27.84,27.84,0,0,1,13,6.54c3,2.74,4.7,6.38,8,13.65a84.82,84.82,0,0,1,4,11,70.2,70.2,0,0,1,2.5,11.5,65.13,65.13,0,0,1,.5,9.5c.53,4.45,1.53,5.88,2.38,6.32a17.53,17.53,0,0,1,2.43,1.44,6.92,6.92,0,0,1,.88.67c1.69,1.61,2.19,3.61,2.75,5.91.69,2.81,1.09,4.44.47,6.39-.86,2.65-3.39,5.19-5.14,4.75-.58-.14-1-.6-2.66-4.35-2-4.52-2.52-6.53-3.29-6.49s-1.14,1.55-1.52,2.77c-.67,2.1-.5,3.46-.85,3.51s-1.22-2.59-1.3-2.88a12.17,12.17,0,0,1-.57-3.56,5.89,5.89,0,0,1,.25-1.74,38,38,0,0,1,1.38-3.86c.55-1.32.49-2.9-.71-6.38-1.93-5.59-4.8-10.24-8-16-3-5.32-3.82-7.33-6.5-10.5-2-2.33-4.5-5.58-6-5-2,.76-.93,7.56-.78,8.5a18.77,18.77,0,0,1-5-4c-4.09-4.62-4.67-10-5-13a30.28,30.28,0,0,1,2.28-15A25.14,25.14,0,0,1,92,87.94Z" style="fill:#f4d4bd;stroke:#c6a083;stroke-miterlimit:10"/><path d="M37.22,279.63c-1.59-.47-3.84,2.1-5,4-2.33,3.82-.92,6.05-3.5,11.5a8.46,8.46,0,0,1-2.5,3.5c-1,.77-2.35,1.18-5,2a16.4,16.4,0,0,0-3,1c-.3.16-3.12,1.69-3,3,.16,1.67,4.72,3.69,9,3,3.86-.62,3.83-2.85,10-5,2.1-.73,3.19-.85,4-2,1.18-1.67,0-3.08,0-7,0-4.28,1.42-5,1-9C39.06,283.15,38.73,280.08,37.22,279.63Z" style="fill:#f4d4bd;stroke:#c6a083;stroke-miterlimit:10"/><path d="M40.72,302.13a7.38,7.38,0,0,0-.59-4.61,2.7,2.7,0,0,0-1.41-1.39c-1.13-.35-2.29.61-4,2-3.11,2.53-4.67,3.79-5,4-1.6,1-5,3.11-7.46,2-.44-.19-2.26-1.11-3.47-1.63a5.21,5.21,0,0,0-1.42-.37c-1.54-.19-1.17.4-6.84,2A14.5,14.5,0,0,0,4.83,307l-.16.16c-.62.65-2.34,2.43-1.95,4,.51,2.06,4.36,2.65,6.84,3,6,.85,14.44,2.15,20.51-3,4-3.4,5.59-8.43,6.65-8,.5.21.67,1.81,1,5,.14,1.35.21,2.64,1,3a1.24,1.24,0,0,0,1,0C41,310.57,40.25,307.94,40.72,302.13Z" style="fill:#d353d0"/><path d="M9,311.13c-1.89-.89-2.31-1.51-2.3-2,0-1.05,2-1.95,4.39-3a17,17,0,0,1,2.07-.77s1-.3,2-.47c2.15-.37,4.63.87,6.56,1.24,4.68.89,8.21-3,9-2,.58.74-1.16,3-2,4a14.89,14.89,0,0,1-6.09,4A17.27,17.27,0,0,1,9,311.13Z" style="fill:#a843a8"/><path d="M87.22,281.63c2.67.48,4,3.52,4.61,4.92,1.51,3.44.28,4.79,2.07,8.58a8.3,8.3,0,0,0,2.5,3.5c1,.77,2.35,1.18,5,2a16.4,16.4,0,0,1,3,1c.3.16,3.12,1.69,3,3-.16,1.67-4.72,3.69-9,3-3.86-.62-3.83-2.85-10-5-2.1-.73-3.19-.85-4-2-1.28-1.82-.25-3.93,0-7,.46-5.53-3.4-7.52-2-10A4.82,4.82,0,0,1,87.22,281.63Z" style="fill:#f4d4bd;stroke:#c6a083;stroke-miterlimit:10"/><path d="M81.9,302.13a7.38,7.38,0,0,1,.59-4.61,2.7,2.7,0,0,1,1.41-1.39c1.13-.35,2.29.61,4,2,3.11,2.53,4.67,3.79,5,4,1.6,1,5,3.11,7.46,2,.44-.19,2.26-1.11,3.47-1.63a5.21,5.21,0,0,1,1.42-.37c1.54-.19,1.17.4,6.84,2a14.5,14.5,0,0,1,5.7,2.84l.16.16c.62.65,2.34,2.43,2,4-.51,2.06-4.36,2.65-6.84,3-6,.85-14.44,2.15-20.51-3-4-3.4-5.59-8.43-6.65-8-.5.21-.67,1.81-1,5-.14,1.35-.21,2.64-1,3a1.24,1.24,0,0,1-1,0C81.59,310.57,82.37,307.94,81.9,302.13Z" style="fill:#d353d0"/><path d="M113.6,311.13c1.89-.89,2.31-1.51,2.3-2,0-1.05-2-1.95-4.39-3a17,17,0,0,0-2.07-.77s-1-.3-2-.47c-2.15-.37-4.63.87-6.56,1.24-4.68.89-8.21-3-9-2-.58.74,1.17,3,2,4a14.89,14.89,0,0,0,6.09,4A17.27,17.27,0,0,0,113.6,311.13Z" style="fill:#a843a8"/><path d="M39.22,283.63c-.87,1.75-2.74,5.35-5.5,5.5-1.31.07-2.46-.66-3.69-1.76-.1.27-.2.52-.31.76-.72,1.59-1.21,2.15-1,3,.72,2.91,8.53,4.69,11,2,.89-1,.27-1.64,1-5,.37-1.7.7-2.3,3-8,.67-1.66,1.36-3.32,2-5,2.35-6.14,4.2-12.48,6-19,2.67-9.68,4-14.52,5-19,.17-.75.32-1.46.48-2.15-3,3.93-7.24,13.48-9.48,23.15C47,261.23,44.45,273.09,39.22,283.63Z" style="fill:#5c1b5e"/><path d="M84.72,287.13c-.5.17-1.49-.12-3.15-.79.05.25.1.51.15.79.6,3.31.76,3.65,1,4,2.41,3.42,11.09,2.63,12,0,.26-.76-.24-1.32-1-3s-1.18-3.81-2-8c-2.42-12.39-3-35-3-35,0-2-.1-3.88-.14-5.54a108.5,108.5,0,0,0-1.86,15.54C86,271.07,88.89,285.69,84.72,287.13Z" style="fill:#5c1b5e"/><path d="M88.72,227.13c1.46-9.19,5.38-19,7-23,2.12-5.28,4.28-9.8,4-16a18.94,18.94,0,0,0-2-8,21.19,21.19,0,0,0-5-6c-10.6-8.66-52.15-8.11-61,1a20.81,20.81,0,0,0-4,6A18.67,18.67,0,0,0,26.47,189a63.8,63.8,0,0,0,3.25,17.18c2,6.45,2.65,11.07,4,20,1.57,10.43,1.29,18.35,1,27a195.52,195.52,0,0,1-3,27A55.25,55.25,0,0,1,30,287.37c1.23,1.1,2.38,1.83,3.69,1.76,2.76-.15,4.63-3.75,5.5-5.5,5.23-10.54,7.78-22.4,8.5-25.5C50,248.46,54.16,238.91,57.2,235c.85-3.38,2.06-8.14,3.52-13.85,2.5-9.78,3.38-13.08,4-13s.15,4.17,1,14c.22,2.52.46,4.63.91,10.05.16,1.9.26,3.24.4,5,.57,7,2.25,11.85,4.69,19,3.49,10.18,8.3,19.29,9,25,.17,1.43.41,2.78.85,5.21,1.66.67,2.65,1,3.15.79,4.17-1.44,1.27-16.06,2-32a108.5,108.5,0,0,1,1.86-15.54C88.42,232.87,88.4,229.14,88.72,227.13Z" style="fill:#891689"/><path d="M76.72,177.13c-7.38.17-12.92-.89-24-3-3.31-.63-8.5-1.72-12-6a13.15,13.15,0,0,1-3-7c-.09-.88-.51-5,2-8,1.53-1.83,3.4-2.38,5-3,8.69-3.36,14.26-10.65,14-11-.13-.17-2.19,2.08-6,3-2.06.5-4,.33-8,0-3.13-.26-4.71-.4-6-1a11.1,11.1,0,0,1-5-5,14.2,14.2,0,0,1,2,4c1,3.35.85,6.54-1,12-.9,2.67-2.26,6.71-4,12a66.8,66.8,0,0,0-3.22,12.63c-.12.86-.2,1.57-.25,2,2.06.38,4.77.87,7.47,1.33,10,1.69,15,2.56,21,3a116.67,116.67,0,0,0,17.07,0c6-.44,11-1.31,21-3,1.91-.32,3.83-.66,5.52-1A105.82,105.82,0,0,0,76.72,177.13Z" style="fill:#9b9b9b"/><path d="M91.72,140.13c-2.41,1.62-4.93,1.79-8,2a33.82,33.82,0,0,1-10-1c-2.56-.57-4-1.13-4-1-.11.3,7.27,3.86,16,7,3.8,1.37,5,1.63,7,3l.48.34c-1.56-4.81-1.18-8.11-.41-10.34.17-.48.35-.91.57-1.4A9.42,9.42,0,0,1,91.72,140.13Z" style="fill:#9b9b9b"/><rect x="63.72" y="186.13" width="3" height="17" style="fill:#d000b6"/><rect x="65.72" y="186.13" width="1" height="17" style="fill:#b200a5"/><path d="M101,176.76a66.8,66.8,0,0,0-3.22-12.63c-1.73-5.29-3.09-9.33-4-12-.22-.58-.42-1.13-.59-1.66l-.48-.34c-2-1.37-3.2-1.63-7-3-8.73-3.14-16.11-6.7-16-7,0-.13,1.44.43,4,1a33.82,33.82,0,0,0,10,1c3.07-.21,5.59-.38,8-2a9.42,9.42,0,0,0,1.64-1.4c.36-.83.81-1.83,1.43-3.6a39.88,39.88,0,0,0,2-7A17.18,17.18,0,0,0,95.28,119a29.82,29.82,0,0,1-4.56-4.85,31.39,31.39,0,0,1-5.5-12.5,37.06,37.06,0,0,1,.34-14.79l-2.88-.52c-2.05-.36-3.8-.64-4.53-.76l-1.24-.2a28.48,28.48,0,0,0-6.29-.1l-6,0h0a56,56,0,0,1-6.73,0,30.06,30.06,0,0,0-6.29.1l-1.24.2-4.26.71-3.25.59a93.83,93.83,0,0,1-1.63,14.77c-1.26,6.29-2.72,9.68-4.5,12.5a29.15,29.15,0,0,1-2.16,3,41.46,41.46,0,0,0-1.84,10,25.16,25.16,0,0,0,1,8c0,.12.33,1,.77,2,.21.51.39.93.56,1.31a11.85,11.85,0,0,0,1.67,1.65c1.64,1.26,3.27,1.55,6,2,3.14.52,6.32,1,10,0s5.85-3.2,6-3c.26.35-5.31,7.64-14,11-1.6.62-3.47,1.17-5,3-2.51,3-2.09,7.12-2,8a13.15,13.15,0,0,0,3,7c3.5,4.28,8.69,5.37,12,6,11.08,2.11,16.62,3.17,24,3a105.82,105.82,0,0,1,22.59,2l2-.36C101.21,178.33,101.13,177.62,101,176.76Z" style="fill:#e8e8e8"/><path d="M121.92,154.63a15.14,15.14,0,0,1,2,5,15.32,15.32,0,0,1,0,6" style="fill:#efc39e;stroke:#c6a083;stroke-miterlimit:10"/><path d="M125.21,153.63a11.29,11.29,0,0,1,2,6,11.12,11.12,0,0,1-1,5" style="fill:#efc39e;stroke:#c6a083;stroke-miterlimit:10"/><path d="M48.22,99.63c-.13,3.92,3.53,5.29,3,9-.41,2.83-2.7,3.21-4,6-2,4.33.81,9.28,3,14a88.54,88.54,0,0,1,4.06,10.45c.33-2.87.49-2.62.94-6.45,1.14-9.62.39-13.44,1-20a62.79,62.79,0,0,1,3.5-15.5c2-7.71,2.85-10,1.5-11.5-.87-.95-2.12-.93-4.58-.55a30.53,30.53,0,0,1-3.42,6.55C50.5,95.54,48.32,96.64,48.22,99.63Z" style="fill:#73006f"/><path d="M49.22,144.63a19.07,19.07,0,0,1-9-1,17.65,17.65,0,0,1-5.07-3l.29.54a8.84,8.84,0,0,1,.69,1.93c0,.16.06.32.09.53.36,2.84-.28,4.68-2,10-4.32,13.36-3.93,13.05-5,15-1.43,2.61-2.53,5.41-4,8-1.12,2-2.08,3.47-1.5,4.5s2.58,1,4,1a82.78,82.78,0,0,1,14.41,1.08,20.94,20.94,0,0,1-5.91-18.58c.36-1.88,1.39-5.8,6-11a47.82,47.82,0,0,1,11.56-9.34c0-.17,0-.35,0-.52A26,26,0,0,1,49.22,144.63Z" style="fill:#b200a5"/><path d="M42.22,153.63c-4.61,5.2-5.64,9.12-6,11a20.94,20.94,0,0,0,5.91,18.58c.73.13,1.44.27,2.09.42,5.65,1.3,8,2,8,2,2.5.74,4.5,1.45,5.5.5.47-.45.48-1.1.5-2.5,0-3.71.06-5.57,0-6-.71-5.38-3-12.39-4-19a65.5,65.5,0,0,1-.44-14.34A47.82,47.82,0,0,0,42.22,153.63Z" style="fill:#d000b6"/><path d="M80.53,114.63c-1.3-2.79-3.6-3.17-4-6-.53-3.71,3.13-5.08,3-9-.1-3-2.29-4.09-5-8a30.28,30.28,0,0,1-3.65-7.21,4.66,4.66,0,0,0-1.66,1.21c-1.47,1.68-1.31,5.12-1,12,.08,1.83.27,4.71,1,10,.76,5.53,1.39,8.45,2,12a152.83,152.83,0,0,1,2,17c0,.65.09,1.62.13,2.83a87.65,87.65,0,0,1,4.18-10.83C79.72,123.91,82.54,119,80.53,114.63Z" style="fill:#73006f"/><path d="M73.4,141.51c0,.63,0,1.31,0,2,2.17,1,4.87,2,7.8,3.1,5.93,2.14,9.17,2.85,12.11,3.85-1.49-5.31-1.65-6.28-1.21-7.47a5.85,5.85,0,0,1,.54-1.12,28.59,28.59,0,0,1-6.44.74A60.72,60.72,0,0,1,73.4,141.51Z" style="fill:#b200a5"/><path d="M87.22,178.63a34,34,0,0,1-13-1A31.45,31.45,0,0,1,69.83,176c-.21,1.55-.36,3.11-.61,4.66-.47,2.9-.76,4.21,0,5,1,1.07,3.21.47,5,0,4-1,9.37-2.46,13-3a103.38,103.38,0,0,1,13-1c1.64,0,3.41,0,4-1a2.16,2.16,0,0,0-.2-2A116.83,116.83,0,0,0,87.22,178.63Z" style="fill:#b200a5"/><path d="M73.42,143.53a116.41,116.41,0,0,1-1.2,17.1c-1.2,8-1.8,12.06-2,13-.17.77-.29,1.56-.39,2.34a31.45,31.45,0,0,0,4.39,1.66,34,34,0,0,0,13,1,116.83,116.83,0,0,1,16.8,0c-.56-1.19-1.66-2.77-2.8-5-.49-.95-1.33-3.3-3-8-2-5.49-2.94-8.23-4-12l-.89-3.15c-2.94-1-6.18-1.71-12.11-3.85C78.29,145.57,75.59,144.49,73.42,143.53Z" style="fill:#d000b6"/><path d="M10.72,138.13a5.72,5.72,0,0,1-2.33-.53c-.22,1.78-.21,2.62.33,3.53a6.41,6.41,0,0,0,8,2c1.49-.9,1.88-2.51,2.5-4.5.46-1.48,2-5,5-12,.78-1.82,1.52-3.37,2.22-4.71a104.17,104.17,0,0,1-8.72,11.21C13.49,137.68,11.94,138.13,10.72,138.13Z" style="fill:#b200a5"/><path d="M47.22,114.63c1.3-2.79,3.59-3.17,4-6,.53-3.71-3.13-5.08-3-9,.1-3,2.28-4.09,5-8a30.53,30.53,0,0,0,3.42-6.55c-2.24.36-5.49,1-10.42,1.55-8.14.88-7.89,0-11,1-6.72,2.13-10.82,7.13-14,11a47.93,47.93,0,0,0-6.5,10.5,62.8,62.8,0,0,0-5,17c-.66,3.76-.1,2.28-1,9-.13,1-.25,1.79-.33,2.47a5.72,5.72,0,0,0,2.33.53c1.22,0,2.77-.45,7-5a104.17,104.17,0,0,0,8.72-11.21,22,22,0,0,1,9.28-10.79,4.18,4.18,0,0,1-.5,3.5,1.8,1.8,0,0,1-.19.2q-.39.89-.81,1.8c-1.07,2.34-1.37,2.6-2,4-1,2.12-2.66,5.85-2,10a16,16,0,0,0,3,7,21.6,21.6,0,0,1,1.93,3,17.65,17.65,0,0,0,5.07,3,19.07,19.07,0,0,0,9,1,26,26,0,0,0,4.61-.86c.12-1.57.26-3,.39-4.14,0-.2,0-.38.06-.55a88.54,88.54,0,0,0-4.06-10.45C48,123.91,45.2,119,47.22,114.63Z" style="fill:#d000b6"/><path d="M38.22,111.63c2.5-2.14,4.12-2.71,4-3s-3.6-.17-6,2c.43.33-.26,2.1-1.19,4.2l.19-.2A32.52,32.52,0,0,1,38.22,111.63Z" style="fill:#b200a5"/><path d="M121.72,138.13c-.35-1.33-.63-2.68-1-4-.94-3.34-1.58-10-2-13a57.6,57.6,0,0,0-1.29-6.43,91.9,91.9,0,0,1-.71,14.43c-.84,6.49-2,9.42-4,10a3.46,3.46,0,0,1-2.17-.17,4.45,4.45,0,0,0,1.67,2.67c3.24,2.45,9.34,1.09,10-1C122.33,140.27,122.23,140.05,121.72,138.13Z" style="fill:#b200a5"/><path d="M117.43,114.7a57.24,57.24,0,0,0-1.89-5.9,53.43,53.43,0,0,0-2.32-5.17c-1.85-3.55-3.57-6.83-7-10-5.36-4.95-11.15-6.15-20-8C79,84.12,73.9,83.07,70.88,84.42a30.28,30.28,0,0,0,3.65,7.21c2.71,3.91,4.9,5,5,8,.13,3.92-3.53,5.29-3,9,.4,2.83,2.7,3.21,4,6,2,4.33-.81,9.28-3,14a87.65,87.65,0,0,0-4.18,10.83c0,.62,0,1.3.05,2a60.72,60.72,0,0,0,12.82,1.12,28.59,28.59,0,0,0,6.44-.74c.79-1.27,1.92-2.07,3.56-5.26a19.29,19.29,0,0,0,2-5,17.64,17.64,0,0,0-1-10c-1.39-3.25-3.2-4.45-3.5-7.5A27.82,27.82,0,0,0,91,112.58c-2.22-1.07-3.26-1.16-3.24-1.45,0-.51,3.34-1.49,6,0l.08.06a.8.8,0,0,1,.42-.56l.06,0c.37-.06,1.48.52,6.94,9a128.27,128.27,0,0,1,7.06,11.68,17.94,17.94,0,0,1,.94,2.32c.76,2.41,1,4.07,1.33,5.33a3.46,3.46,0,0,0,2.17.17c2-.58,3.16-3.51,4-10A91.9,91.9,0,0,0,117.43,114.7Z" style="fill:#d000b6"/><path d="M87.72,111.13c0,.29,1,.38,3.24,1.45a27.82,27.82,0,0,1,2.76,1.55,9,9,0,0,1,.08-2.94l-.08-.06C91.06,109.64,87.76,110.62,87.72,111.13Z" style="fill:#b200a5"/><path d="M93.72,74.13c1.35-2.22,3-6,3-32.34v-8.4a50.55,50.55,0,0,0-7.94-5.46,53.31,53.31,0,0,0-24-6.59,52.62,52.62,0,0,0-24.39,5.72,49.43,49.43,0,0,0-7.58,4.82c0,2.93-.07,7.08,0,12.05.22,16.63.47,25.05,3.93,30.2,1.75,2.61,5.84,5.41,14,11,9.81,6.72,12.76,7,14,7s4.66-.06,15-7C88,79.58,92.1,76.8,93.72,74.13Z" style="fill:#f4d4bd;stroke:#c6a083;stroke-miterlimit:10"/><path d="M104.72,24.13c-2.7-9.14-9.82-14.39-12-16a38.91,38.91,0,0,0-13-6,53.87,53.87,0,0,0-30,0c-3.86,1.15-8.3,2.47-13,6a35,35,0,0,0-12,17c-1.45,4.28-1.69,7.64-2,12-.15,2.07-.2,4-.18,5.75a85.09,85.09,0,0,0,1,11.93c.09.61.16,1,.21,1.32,1.27,7.68,4.11,24.88,2,34-.13.55-.64,2.66,0,3,.48.26,1.21-.67,3-2a15.66,15.66,0,0,1,6-3c1.23-.27,2.11-.46,3,0,1.64.86,1.92,3.26,2,4,.39,3.42-1.42,5.76-1,6s2.44-1.51,3-4c.46-2.07-.26-3.93,0-4s.52,1.78,2,3,3.88,1.34,4,1-1.62-.81-3-2c-.87-.75-1.9-2.1-3-9s-.07-5.58-1-10c-.48-2.28-1.25-4.95,0-6,.59-.49,1.21-.28,2-1,1.17-1.07,1.25-2.89,1-3s-.66,1.6-2,2a3.29,3.29,0,0,1-3-1c0-.07.44.17,1,0a1.59,1.59,0,0,0,1-1h0c0-.08.31-5.22,0-6h0c0-.09-1.12-18.37,2-21a4.24,4.24,0,0,1,.46-.34c.73-.42,1.52-.35,5-2a36.2,36.2,0,0,1,3.58-1.64c1.86-.7,2-.52,3-1,2.64-1.24,3.53-3.25,4-3s.22,2.35-1,4c-2.09,2.81-6,2.86-6,3s6.76.65,9-3c1.16-1.9.33-3.64,2-7a14.4,14.4,0,0,1,2-3,23.77,23.77,0,0,0,2,3,18.44,18.44,0,0,0,4,4c1.74,1.21,2.1.85,7,3,1.4.62,1.22.58,3.58,1.64,3.39,1.52,5,2.14,5.42,2.36,4.07,2,1.86,9,3,21a20.38,20.38,0,0,1,0,6,50.66,50.66,0,0,0-1,5,21.66,21.66,0,0,0,0,4c.45,6.54-.07,17.32-.13,18.49a8.35,8.35,0,0,0,.17,2.15c.24,1.19.74,2.41,1,2.36.42-.09-.32-4.95,0-5,.15,0,.18,1.11,1,2,1.35,1.47,3.93,1.28,4,1s-2.42-.43-3-2a2.73,2.73,0,0,1,1-3l.1-.06c1-.52,2.27.22,3.9,1.06,3.24,1.68,2.9,1.26,4,2,1.8,1.21,2.57,2.25,3,2s.06-1.76,0-2c-.92-3.54.8-8.26,2-17a128.69,128.69,0,0,0,1-20c-.27-6.42-.39-6-1-17S105.23,25.85,104.72,24.13Z" style="fill:#5e5d5b"/><path d="M86.74,52c.25-.24,2.41-2.11,4.81-1.51a5.35,5.35,0,0,1,3.22,3,7.92,7.92,0,0,1,0,7.53,5.35,5.35,0,0,1-3.22,3c-2.4.61-4.56-1.27-4.81-1.5A7.49,7.49,0,0,1,86.74,52Z" style="fill:#f4d4bd"/><path d="M42.86,53c-.23-.24-2.08-2.11-4.15-1.51-1.56.45-2.31,2.05-2.76,3A9,9,0,0,0,36,62c.45,1,1.2,2.56,2.76,3,2.07.61,3.92-1.27,4.15-1.5C45.34,60.9,45.34,55.53,42.86,53Z" style="fill:#f4d4bd"/><path d="M63.72,95.13c-1.9-.14-2.26-2.1-4-2a3.35,3.35,0,0,0-3,3,3,3,0,0,0,2,3c1.77.47,2.62-2,5-2s3.24,2.48,5,2a3.25,3.25,0,0,0,0-6C66.94,92.68,66,95.3,63.72,95.13Z" style="fill:#ff00a4"/><path d="M65.72,95.13a2,2,0,0,1,0,2,1.63,1.63,0,0,1-3,0,2,2,0,0,1,0-2,1.62,1.62,0,0,1,3,0Z" style="fill:#a00753"/></svg>