<svg xmlns="http://www.w3.org/2000/svg" viewBox="0 0 133.64 304.93"><title>avatar-3</title><path d="M117.94,138.7c-.7,1.76,1.37,2.72,1.19,5.71-.14,2.42-1.59,2.7-1.63,5.6a12.51,12.51,0,0,0,.57,3.56c.08.29.81,3,1.31,2.88.34,0,.18-1.41.84-3.51.38-1.22.86-2.73,1.52-2.77s1.3,2,3.29,6.5c1.64,3.74,2.08,4.2,2.66,4.34,1.75.44,4.28-2.1,5.14-4.75.63-1.95.23-3.58-.46-6.39-.57-2.3-1.06-4.3-2.76-5.91-1.37-1.3-1.93-.76-3.3-2.11-2.32-2.27-1.58-4.32-3.35-5.08A4.24,4.24,0,0,0,117.94,138.7Z" style="fill:#edca8c;stroke:#d3a559;stroke-miterlimit:10"/><path d="M129.42,149a11.29,11.29,0,0,1,2,6,11.12,11.12,0,0,1-1,5" style="fill:#edca8c;stroke:#d3a559;stroke-miterlimit:10"/><path d="M126.42,150a15.05,15.05,0,0,1,2,11" style="fill:#edca8c;stroke:#d3a559;stroke-miterlimit:10"/><path d="M15.71,137.7c.7,1.76-1.38,2.72-1.2,5.71.14,2.42,1.59,2.7,1.63,5.6a12.17,12.17,0,0,1-.57,3.56c-.08.29-.81,3-1.3,2.88s-.18-1.41-.85-3.51c-.38-1.22-.86-2.73-1.52-2.77s-1.3,2-3.29,6.5C7,159.41,6.53,159.87,6,160c-1.75.44-4.28-2.1-5.14-4.75-.63-1.95-.23-3.58.47-6.39.56-2.3,1.05-4.3,2.75-5.91,1.37-1.3,1.93-.76,3.31-2.11,2.31-2.27,1.58-4.32,3.34-5.08A4.26,4.26,0,0,1,15.71,137.7Z" style="fill:#edca8c;stroke:#d3a559;stroke-miterlimit:10"/><path d="M4.22,148a11.29,11.29,0,0,0-2,6,11.12,11.12,0,0,0,1,5" style="fill:#edca8c;stroke:#d3a559;stroke-miterlimit:10"/><path d="M7.22,149a15.14,15.14,0,0,0-2,5,14.94,14.94,0,0,0,0,6" style="fill:#edca8c;stroke:#d3a559;stroke-miterlimit:10"/><path d="M34.22,97c-.37-.07-1.15,2.74-4,11-4.83,14-6.3,16.64-8,19-2.09,2.9-7,9.74-12,9-1.85-.27-3-1.48-5.9-2.81-.87,3.75-.8,5.6.25,6.64s1.87.21,5.93,1.31c4.86,1.31,5.33,2.9,7.11,2.61,3.29-.53,4.4-6.41,8.29-17,2.52-6.85,5.38-14.64,6.7-15C34.46,100.13,34.59,97.11,34.22,97Z" style="fill:#b23434"/><path d="M125.31,120.25c-3.9-12.39-5.1-15.78-6.36-18.25a79.94,79.94,0,0,1,1.77,18.53c-.2,7.31-1.47,11.63-3,15a33.4,33.4,0,0,1-4.09,6.76,3.46,3.46,0,0,0,2.2,1.49c1.78.29,2.25-1.3,7.11-2.61,4-1.1,4.91-.31,5.92-1.31C130.75,138,129.5,133.55,125.31,120.25Z" style="fill:#d6403c"/><path d="M120.72,120.53A79.94,79.94,0,0,0,119,102c-.24-.47-.48-.9-.75-1.35a56.62,56.62,0,0,0-3.36-5.29c-3.94,7.19-7.92,9.55-11.12,10.17-2.94.57-4.76-.4-7,1-3.41,2.13-3.55,7.07-4,15-1.2,21.2-2.44,25.32-3,27-1.46,4.4-3.25,9.8-8,14-7.42,6.56-17.34,6-37,5-5.22-.27-12-.92-16.61-1.41-.23,1.92-.44,3.61-.61,5-.09.74-.17,1.43-.25,2,2.06.38,4.77.88,7.47,1.33,8.55,1.45,14.31,2.42,21,3a149.36,149.36,0,0,0,25,0,114.48,114.48,0,0,0,14-2c3.24-.68,6-1.4,8-2l-3-23c-1.5-31.6-.4-38.56,1-38.73s4,7.35,6.86,15c2.88,7.83,4.24,13.08,6.09,15.5a33.4,33.4,0,0,0,4.09-6.76C119.25,132.16,120.52,127.84,120.72,120.53Z" style="fill:#c1c1c1"/><path d="M81.72,162.53c4.75-4.2,6.54-9.6,8-14,.56-1.68,1.8-5.8,3-27,.45-7.93.59-12.87,4-15,2.24-1.4,4.06-.43,7-1,3.2-.62,7.18-3,11.12-10.17a33.52,33.52,0,0,0-6.12-6.48,34.5,34.5,0,0,0-13-6.53c-3.57-.92-10.92-2.11-12.61-2.39l-1.24-.2a27.72,27.72,0,0,0-5-.18l-19,.08a28.48,28.48,0,0,0-6.29.1l-1.24.2c-1.7.28-9,1.47-12.61,2.39a34.51,34.51,0,0,0-13,6.53,39.31,39.31,0,0,0-9.47,11.77c-1.66,2.85-2.47,4.86-7.11,19.6-1.85,5.87-3.12,10-3.81,13,2.89,1.33,4,2.54,5.9,2.81,5,.74,9.91-6.1,12-9,1.7-2.36,3.17-5,8-19,2.85-8.26,3.63-11.07,4-11s.24,3.1-1.62,14.8a.29.29,0,0,1,.15,0c1.84.46-.43,19.38-2.51,36.62q-1.32,10.92-2.13,17.7c4.65.49,11.39,1.14,16.61,1.41C64.38,168.57,74.3,169.09,81.72,162.53Z" style="fill:#e8e8e8"/><path d="M47,77.49A33.56,33.56,0,0,0,58.2,82c7.36,1.31,13.68-1.83,16-3,8.41-4.18,12.29-11.08,14.46-15.06,3.64-6.7,3.11-9.86,6.42-24.1.59-2.52,1.12-4.8,1.61-6.87V27.79a50.6,50.6,0,0,0-7.94-5.45,53.24,53.24,0,0,0-24-6.6,52.55,52.55,0,0,0-24.39,5.73,49.43,49.43,0,0,0-7.58,4.82c.1,5.15.05,9.31,0,12-.16,8.21-.56,11.74,0,18.08.37,4.17.55,6.26,1.44,9a29.12,29.12,0,0,0,3.06,6.45c1.06.49,2.63,1.39,4.85,2.67C44.54,75.86,45.92,76.83,47,77.49Z" style="fill:#edca8c"/><path d="M64.76,86.53c3.16.06,13.69.09,22.38-7.53,10-8.77,9.68-20.76,9.6-22.59V33c-.34,1.59-.86,4-1.61,6.87a95.23,95.23,0,0,1-6.41,18.69c-2.6,5.38-3.91,8.07-6,10-4.45,4.11-8.47,3.83-12,9-1.31,1.91-1.45,3-3,4-2.67,1.8-5.93,1.17-9.52.48A39.28,39.28,0,0,1,47,77.49c-1-.66-2.41-1.63-4.81-3-2.22-1.28-3.79-2.18-4.85-2.67a30.84,30.84,0,0,0,4.86,5.9C50.51,85.58,60.75,86.45,64.76,86.53Z" style="fill:#d8b782"/><path d="M34.11,41.35c-.26-.23-2.42-2.11-4.82-1.51a5.39,5.39,0,0,0-3.21,3,7.92,7.92,0,0,0,0,7.53,5.36,5.36,0,0,0,3.21,3c2.4.61,4.56-1.27,4.82-1.5A7.49,7.49,0,0,0,34.11,41.35Z" style="fill:#edca8c"/><path d="M94.74,41.35c.25-.23,2.41-2.11,4.81-1.51a5.38,5.38,0,0,1,3.22,3,7.92,7.92,0,0,1,0,7.53,5.35,5.35,0,0,1-3.22,3c-2.4.61-4.56-1.27-4.81-1.5A7.49,7.49,0,0,1,94.74,41.35Z" style="fill:#edca8c"/><path d="M63.72,90.53c-.69,0-1.29,8.2-2,18-.59,8.14-.41,8.77-1,13-.53,3.77-1,5.5-1,9a32,32,0,0,0,1,9,57.81,57.81,0,0,0,3,8h0a42.58,42.58,0,0,0,3-9,38.76,38.76,0,0,0,1-7c.17-4-.44-6.39-1-10s-.24-3.08-1-13C64.85,97.16,64.34,90.53,63.72,90.53Z" style="fill:#dd193e"/><path d="M60.72,85.53c1.33-1.84,4.42-2.39,6-1,2,1.74.3,5.36,0,6s-1.38,3-3,3-2.77-2.46-3-3C60.41,89.81,59.37,87.4,60.72,85.53Z" style="fill:#bc243a"/><path d="M98.92,293c.27-.68-.22-1.19,0-3,.19-1.65.68-1.93.5-2.5-.71-2.19-9.34-2.14-10,0-.21.68.54,1.1.5,2.5,0,1.71-1.2,2.23-1,3C89.42,295,97.94,295.45,98.92,293Z" style="fill:#edca8c;stroke:#d3a559;stroke-miterlimit:10"/><path d="M96.58,290.37l-6.07.37A22.23,22.23,0,0,1,96.58,290.37Z" style="fill:#7a7a7a"/><path d="M85.42,291.53a8.82,8.82,0,0,1,1.77-1.46,8.73,8.73,0,0,0,1.73,1c3.2,1.35,6.2.51,8,0a10.13,10.13,0,0,0,4-2l.2-.19c1.45.21,2.89.45,4.3.69a47.89,47.89,0,0,1,10,3c5.74,2.18,7.16,3.55,8,5,.29.5,2,3.14,1,5s-3.86,1.93-6,2c-11.93.42-17.9.63-23,0-3.1-.38-7.35-1-12.4-2a10.76,10.76,0,0,1-.6-3A12.37,12.37,0,0,1,85.42,291.53Z" style="fill:#303030"/><path d="M113.42,300.53a8.62,8.62,0,0,0,5-1c.83-.47,2-1.11,2-2,0-1.13-1.81-2-4-3a36.86,36.86,0,0,0-6-2c-4.85-1.34-5.44-1.26-6-1-2,.91-2.62,3.49-3,5-.29,1.16-.55,2.2,0,3,.66,1,2.1,1,4,1C108.79,300.55,111.51,300.54,113.42,300.53Z" style="fill:#515151"/><path d="M96.92,291c-1.8.51-4.8,1.35-8,0a8.73,8.73,0,0,1-1.73-1,10.8,10.8,0,0,1,3.32-1.33l6.07-.37c1.49.08,3,.25,4.54.47l-.2.19A10.13,10.13,0,0,1,96.92,291Z" style="fill:#515151"/><path d="M30.22,294c-.28-.68.21-1.19,0-3-.2-1.65-.68-1.93-.5-2.5.7-2.19,9.34-2.14,10,0,.21.68-.54,1.1-.5,2.5.05,1.71,1.2,2.23,1,3C39.71,296,31.19,296.45,30.22,294Z" style="fill:#edca8c;stroke:#d3a559;stroke-miterlimit:10"/><path d="M43.72,291.53A8.82,8.82,0,0,0,42,290.07a9.34,9.34,0,0,1-1.73,1c-3.2,1.35-6.2.51-8,0a10,10,0,0,1-4-2l-.21-.19c-1.44.21-2.89.45-4.29.69a47.71,47.71,0,0,0-10,3c-5.74,2.18-7.17,3.55-8,5-.29.5-2,3.14-1,5s3.86,1.93,6,2c11.93.42,17.89.63,23,0,3.1-.38,7.35-1,12.4-2a10.76,10.76,0,0,0,.6-3A12.48,12.48,0,0,0,43.72,291.53Z" style="fill:#303030"/><path d="M15.72,300.53a8.61,8.61,0,0,1-5-1c-.83-.47-2-1.11-2-2,0-1.13,1.8-2,4-3a36.86,36.86,0,0,1,6-2c4.85-1.34,5.43-1.26,6-1,2,.91,2.62,3.49,3,5,.29,1.16.55,2.2,0,3-.66,1-2.1,1-4,1C20.35,300.55,17.63,300.54,15.72,300.53Z" style="fill:#515151"/><path d="M32.22,291c1.8.51,4.8,1.35,8,0a9.34,9.34,0,0,0,1.73-1,11,11,0,0,0-3.33-1.33l-6.06-.37c-1.49.08-3,.25-4.55.47l.21.19A10,10,0,0,0,32.22,291Z" style="fill:#515151"/><path d="M95.22,263c-.53-6.49-1.35-7.72-2-13-.62-5-.09-11.08,1-23,2-21.63,2-21.51,2-23-.06-12.76-2.43-15.24-1-23a34.69,34.69,0,0,1,2-6.89l-2.27.39c-10.61,1.8-15.91,2.69-21,3-2.69.16-5.22.18-7.63.11v-.13l-1.52.08-1.51-.08v.13c-2.41.07-4.94.05-7.63-.11-5.08-.31-10.38-1.2-21-3-2.7-.46-5.41-.95-7.47-1.33-.34,2.81-.52,4.25-.53,4.33a45.7,45.7,0,0,0-1,9c0,3.76.49,5,1,12,.08,1.17.19,3.32.4,7.58.33,6.56.39,8.85.6,12.42.48,8.31.72,12.46,1.05,17.23.44,6.48.69,9.13.95,14.76a101.41,101.41,0,0,1,0,14,67.41,67.41,0,0,1-1,8c-.65,3.36-1.23,6.74-1.84,10.11,2.71.56,4.63.87,6.84-.08,3.05-1.31,4.53-4.11,6-7,2.9-5.7,2.85-10.18,3.5-17.5.84-9.45,1.26-14.17,3-20s4.08-10.25,8.5-18.5c.18-.34,2.33-4.32,5.8-9.47,1.3-4.62,2.3-7.57,3.2-8.83v.26a2,2,0,0,1,1.13-.94,2,2,0,0,1,1.14.94v-.26c1.46,2,3.16,8.47,6,19.29.44,1.66.52,2,3,12,2.38,9.58,3.58,14.41,4,16,3.58,13.65,3.78,11.76,5,18,1.6,8.2,2.57,13.17,2.4,16.55,3.35-.73,5.39-1.48,6.82-3C96.27,276.75,95.94,271.87,95.22,263Z" style="fill:#18459e"/><rect x="63.72" y="180.53" width="3" height="17" style="fill:#2e4889"/><rect x="65.72" y="180.53" width="1" height="17" style="fill:#18356d"/><path d="M46.22,238c-1.74,5.83-2.16,10.55-3,20-.65,7.32-.6,11.8-3.5,17.5-1.47,2.89-2.95,5.69-6,7-2.21,1-4.13.64-6.84.08a6.82,6.82,0,0,0-.16.88c-.19,1.52,0,3.95,1,5,1.47,1.54,3.79-.6,8,0,4.59.66,6.63,3.89,8,3,1-.65.33-2.62,0-6-.57-5.71.28-10.17,2-19,1.22-6.23,1.41-4.34,5-18,.42-1.59,1.62-6.42,4-16,2.48-10,2.56-10.33,3-12,1.09-4.13,2-7.61,2.81-10.46-3.47,5.15-5.62,9.13-5.8,9.47C50.3,227.78,48,232.08,46.22,238Z" style="fill:#18356d"/><path d="M100.94,235.75c.33-4.77.57-8.92,1-17.23.21-3.57.27-5.86.59-12.42.22-4.26.32-6.41.41-7.58.51-7,1-8.23,1-12a45.7,45.7,0,0,0-1-9c0-.08-.19-1.52-.53-4.33l-5.2.94a34.69,34.69,0,0,0-2,6.89c-1.43,7.76.94,10.24,1,23,0,1.49,0,1.37-2,23-1.09,11.92-1.62,18-1,23,.65,5.28,1.47,6.51,2,13,.72,8.84,1,13.72-2,17-1.43,1.54-3.47,2.29-6.82,3-.1.55-.25,1.4-.4,2.44-.59,3.83-.86,5.75-.28,6s1.16-1,3-2c2-1.11,4.06-1.06,7-1,3.9.09,4.88.84,6,0s1.25-2.76,1.27-5c0-3.13-.72-4.39-2-11a67.41,67.41,0,0,1-1-8,101.41,101.41,0,0,1,0-14C100.25,244.88,100.5,242.23,100.94,235.75Z" style="fill:#18356d"/><circle cx="54.22" cy="48.03" r="7" style="fill:#736357;stroke:#000;stroke-miterlimit:10"/><circle cx="74.22" cy="48.03" r="7" style="fill:#736357;stroke:#000;stroke-miterlimit:10"/><path d="M48.22,45l-15-3" style="fill:none;stroke:#000;stroke-miterlimit:10"/><path d="M80.22,45l15-5" style="fill:none;stroke:#000;stroke-miterlimit:10"/><path d="M61.22,46a3.25,3.25,0,0,1,6,0" style="fill:none;stroke:#000;stroke-miterlimit:10"/><path d="M49,87c-2.85,2.47-4.63,3.21-4.76,5-.11,1.5,1.26,3,4,6s4.31,4,4,5-1.81.75-4,2a11.13,11.13,0,0,0-4,4c-1.76,3.15.05,7,2,12s3,10.13,5,15c1.74,4.22,4,9.9,6.49,17.29,0-4.93.1-9.86,0-14.79-.17-9.33.63-10.23.5-25.5a167,167,0,0,0-1.5-18.5c-.93-7-1.43-10.52-3-12a2.11,2.11,0,0,0-.23-.19A35.44,35.44,0,0,1,49,87Z" style="fill:#243477"/><path d="M82.51,121c1.95-5,3.75-8.85,2-12a11.22,11.22,0,0,0-4-4c-2.19-1.25-3.72-1-4-2s1.23-2,4-5,4.11-4.5,4-6c-.14-1.8-1.92-2.54-4.77-5a36.36,36.36,0,0,1-5.06-5.39,4.25,4.25,0,0,0-.46.4c-2.08,2-1.92,5-2,9-.09,4.35-.85,8.66-1,13-.33,9.2-.65,8.35-1,17-.31,7.67-.21,13.78,0,26,0,3.18.11,5.85.17,8.11,2.8-8.29,5.23-14.55,7.12-19.11C79.52,131.16,80.59,125.94,82.51,121Z" style="fill:#243477"/><path d="M10.22,136a14.77,14.77,0,0,1-6.35.83A4.43,4.43,0,0,0,4.22,140c.28.48,1,1.43,9,3,3.47.68,4.79.79,6,0a5.56,5.56,0,0,0,2-3,74.64,74.64,0,0,0,3-9,84.14,84.14,0,0,1,4-10.89,89,89,0,0,1-6,6.89C15.41,134.14,11.91,135.53,10.22,136Z" style="fill:#2e4889"/><path d="M57.64,166.2c-3.41,6.52-8.27,11.16-13.92,12.33-5.45,1.14-12.17-.82-14.5-1.5a41.29,41.29,0,0,1-4.26-1.5c-.08.33-.15.67-.24,1-.45,1.73-1,3.71,0,5s3.3,1,7,1a65.89,65.89,0,0,1,10,1c7.15,1,10.74,1.46,12,2,1,.42,2.47,1.15,3.5.5,1.27-.8,1.06-3.23,1-4C57.81,176.76,57.67,171.49,57.64,166.2Z" style="fill:#2e4889"/><path d="M43.72,178.53c5.65-1.17,10.51-5.81,13.92-12.33,0-4.29,0-8.59.07-12.88C55.17,145.93,53,140.25,51.22,136c-2-4.87-3.08-10.09-5-15s-3.76-8.85-2-12a11.13,11.13,0,0,1,4-4c2.19-1.25,3.71-1,4-2s-1.23-2-4-5-4.11-4.5-4-6c.13-1.8,1.91-2.54,4.76-5a35.44,35.44,0,0,0,4.51-4.68c-6-5.21-22-.28-31.27,8.69-6.77,6.53-9.94,15.12-11,18-2,5.5-1.16,6.06-4,14a89.52,89.52,0,0,0-3,12c-.15.7-.27,1.29-.35,1.83a14.77,14.77,0,0,0,6.35-.83c1.69-.5,5.19-1.89,12-9a89,89,0,0,0,6-6.89l0-.11c2.2-5.42,3.3-8.13,4-8,1.55.29.45,12.83,0,18-.59,6.77-1.4,12.09-2,16-1.37,8.91-2,13.36-3,17-1.07,4.1-1.31,8.38-2.26,12.5a41.29,41.29,0,0,0,4.26,1.5C31.55,177.71,38.27,179.67,43.72,178.53Z" style="fill:#3346b5"/><path d="M94.22,170a12.06,12.06,0,0,1-3,6c-4.94,5-13.68,3.27-15,3a21.08,21.08,0,0,1-5.31-1.86c-.07,3.66.31,6.78,2.31,7.86.53.29.94.28,4,0,4.76-.43,7.14-.64,10-1,1-.12,4.8-.6,9-1,7.14-.68,9.09-.55,10-2,.8-1.28.09-2.65-1-6-1.68-5.16-2.46-9.77-4-19-.13-.78-.57-3.45-1-7-.66-5.44-.9-9.75-1-12-.17-3.88-.12-7.25,0-14,0-.18,0-.33,0-.51a62,62,0,0,0-3,17.51C96.06,146.86,97,158.14,94.22,170Z" style="fill:#2e4889"/><path d="M115.22,139a10.18,10.18,0,0,0,6-3c2.13-2.45,2.12-5.7,2-8-.55-10.23-4.16-16.63-6-25a51.46,51.46,0,0,1-.93-5.88l-.07-.12a37.09,37.09,0,0,0-13-12c-3.36-1.81-6.24-2.54-12-4-5.08-1.28-8.42-1.63-12-1a9.59,9.59,0,0,0-4.54,1.6A36.36,36.36,0,0,0,79.74,87c2.85,2.47,4.63,3.21,4.77,5,.11,1.5-1.26,3-4,6s-4.31,4-4,5,1.81.75,4,2a11.22,11.22,0,0,1,4,4c1.75,3.15-.05,7-2,12s-3,10.13-5,15c-1.89,4.56-4.32,10.82-7.12,19.11.46,16.59,1.1,10.77.83,15.89-.11,2.05-.27,4.17-.31,6.14A21.08,21.08,0,0,0,76.22,179c1.32.27,10.06,2,15-3a12.06,12.06,0,0,0,3-6c2.76-11.89,1.84-23.17,2-30a62,62,0,0,1,3-17.51c.16-8.94.41-10.38,1-10.49.79-.15,1.87,2.23,4,7,2.22,5,3.68,9.1,4,10,1.2,3.41,2.78,6.71,3.77,10.18A12.48,12.48,0,0,0,115.22,139Z" style="fill:#3346b5"/><path d="M130.22,135a11.35,11.35,0,0,0-1-4c-2.45-5.56-1.86-8.34-7-21-2.79-6.86-4.2-10.34-5.93-12.88a51.46,51.46,0,0,0,.93,5.88c1.84,8.37,5.45,14.77,6,25,.12,2.3.13,5.55-2,8a10.18,10.18,0,0,1-6,3,12.48,12.48,0,0,1-3.23.18c.08.27.16.55.23.82.48,1.89.77,3.44,2,4,1.49.68,2.65-.86,6-2,4.93-1.67,7.32,0,9-2C130.42,138.58,130.3,136.37,130.22,135Z" style="fill:#2e4889"/><path d="M73.72.53a60.93,60.93,0,0,0-16,0c-6,.7-21.1,2.43-24,10a25.15,25.15,0,0,0-1.27,5.88,48,48,0,0,0,0,6.86c.06,2.18,0,1.05,0,7.53,0,4.62.07,6.56-.06,10.06,0,1.41,0,1.19-.08,1.92a70.81,70.81,0,0,0,.36,8.75c1.36,13.12.58,13.43,2,17a24.39,24.39,0,0,0,6,9,29.25,29.25,0,0,0,4,3,50.54,50.54,0,0,0,9,5,47.5,47.5,0,0,0,10,3,92.86,92.86,0,0,0,12-3c9-2.9,12-5.38,13.11-6.42a23.7,23.7,0,0,0,3.89-4.58,27.85,27.85,0,0,0,4-12c.7-4.58-.14-5-.13-16.88,0-5.57.2-6,.15-11.83,0-3.13-.06-5.35,0-9,0-1.22,0-1.86.14-5,.06-2,.09-3,.09-3.25a46.56,46.56,0,0,0-.25-5C96.16,7.22,85.54,2.14,73.72.53Zm-18,77c-1-1.37-.27-3.3,0-4a8.2,8.2,0,0,1,7-5c3.34-.19,7,1.78,8,5a6.89,6.89,0,0,1,0,4,5.07,5.07,0,0,1-4,1c-2.1-.59-2.64-3.14-4-3s-1.18,2.27-3,3A3.58,3.58,0,0,1,55.72,77.53Zm37.8-45.22c.27,1.37.2,3.93,0,9-.14,3.82,0,3.8,0,6-.09,6.33-.13,9.5-.8,12.16-1.54,6.13-5.81,10-7.54,11.58a27.35,27.35,0,0,1-12.46,6.42c.21-.44,2.48-5.4,0-9-2.22-3.22-6.69-3.09-10-3-2.75.08-7,.2-9,3-2.38,3.4.65,8-1,9-2,1.28-8-5-9-6-2.41-2.5-5.57-5.8-7-11a35.71,35.71,0,0,1-1-8c0-2.66.15-3.11.11-7,0-.6,0-.92,0-2,0,0,0-1.47-.06-3,0-1.19.23-3.71,1.6-9.73a16.76,16.76,0,0,1,4.4-6.27c5.51-4.86,13.54-5.17,14-4,.3.79-1.84,2.9-4,3a5.63,5.63,0,0,1-3-1,7.09,7.09,0,0,0,4,2c1.76.27,3.07-.26,5-1,5.8-2.22,8.79-3.37,9-3s-2.75,2.61-5,4a14.38,14.38,0,0,1-4,2c-3.34.91-5.93-.28-6,0s3.09,2.23,7,2c1.65-.09,2.59-.52,6-2,8.49-3.67,9.21-3.89,10-4a18.85,18.85,0,0,1,9,1C85,24,92.44,26.65,93.52,32.31Z" style="fill:#212121"/></svg>